<svg xmlns="http://www.w3.org/2000/svg" width="77.62mm" height="45.88mm" viewBox="0 0 220.04 130.06">
  <defs>
    <style>
      .cls-1 {
        fill: #001c1e;
      }

      .cls-2 {
        fill: #76b830;
      }
    </style>
  </defs>
  <title>Asset 1</title>
  <g id="Layer_2" data-name="Layer 2">
    <g id="Calque_1" data-name="Calque 1">
      <g id="Page-1">
        <g id="advisa-logo">
          <g id="advisa">
            <path id="Shape" class="cls-1" d="M36.81,97.67l-7.49,3.44-1.05-3.42a23.67,23.67,0,0,1-12.43,3.23A16.5,16.5,0,0,1,4.93,97a13.53,13.53,0,0,1-.09-20.82,16.34,16.34,0,0,1,11-3.81h7.79a6,6,0,0,0,3.79-1V67.08a5.38,5.38,0,0,0-2.61-4.75,10.74,10.74,0,0,0-6-1.71q-8,0-10.16,7.22L1.42,65.08Q5.13,52.92,19,52.92a17.26,17.26,0,0,1,11.1,3.7A12.56,12.56,0,0,1,35.3,67.08V93.89Zm-9.39-8.34v-10a11.29,11.29,0,0,1-3.23.48H15.75a8.39,8.39,0,0,0-5.5,2,6.08,6.08,0,0,0-2.37,4.89,5.76,5.76,0,0,0,2.41,4.8,8.89,8.89,0,0,0,5.55,1.86A16.93,16.93,0,0,0,27.42,89.33Zm52,9.5-7.5,2.28-1-3.61a18.47,18.47,0,0,1-11.2,3.33q-19,0-19-24t19-24.05q6.36,0,10.34,3V33.62h7.88V93.89ZM70,83.62v-14a8,8,0,0,0-3-6.37,11,11,0,0,0-7.31-2.57q-6.54,0-9.11,4.85-2,3.7-2,11.31t2,11.32Q53.15,93,59.7,93a11.23,11.23,0,0,0,7.4-2.42A8.55,8.55,0,0,0,70,83.62Zm54.43-29.13-17.55,46.37H99.61L82.15,54.49h8.64l12.52,33.27,12.52-33.27Zm13.22,46.37h-8.1V54.49h8.1Zm42.1-14.39a12.57,12.57,0,0,1-5.6,10.75,19.75,19.75,0,0,1-12,3.61q-15.64,0-19.07-13.5L151,85.9q1.43,4.18,4.17,5.71,2.37,1.42,7,1.42a13,13,0,0,0,6.26-1.42,5.63,5.63,0,0,0,3.33-5.14q0-4.45-7-6.56-6.54-1.89-13-3.7-7-3.33-7-10.46a11.31,11.31,0,0,1,5.13-9.89,19.28,19.28,0,0,1,11-2.94q12.24,0,17.08,9.69l-7.11,3.52q-2.85-5.32-10-5.32-8.16,0-8.16,4.94c0,2,2.34,3.64,7,4.85q10.33,2.66,13,4.09A12.53,12.53,0,0,1,179.79,86.47ZM220,98.83l-7.5,2.28-1-3.42a23.72,23.72,0,0,1-12.43,3.23A16.46,16.46,0,0,1,188.16,97a13.53,13.53,0,0,1-.1-20.82,16.35,16.35,0,0,1,11-3.81h7.78a6,6,0,0,0,3.79-1V67.08A5.38,5.38,0,0,0,208,62.33a10.72,10.72,0,0,0-6-1.71q-8,0-10.15,7.22l-7.22-2.76q3.71-12.16,17.56-12.16a17.26,17.26,0,0,1,11.1,3.7,12.56,12.56,0,0,1,5.22,10.46V93.89Zm-9.4-9.5v-10a11.22,11.22,0,0,1-3.22.48H199a8.39,8.39,0,0,0-5.5,2,6.08,6.08,0,0,0-2.37,4.89,5.75,5.75,0,0,0,2.42,4.8,8.85,8.85,0,0,0,5.55,1.86A16.9,16.9,0,0,0,210.64,89.33Z"/>
            <polygon id="Path" class="cls-2" points="137.69 46.37 129.59 46.37 129.59 0 137.69 0 137.69 46.37"/>
          </g>
        </g>
      </g>
      <g id="_2" data-name="2">
        <g>
          <path class="cls-1" d="M1.41,129.85V113.73h10v1.16H2.59v6h7.73V122H2.59v6.65h8.84v1.16Z"/>
          <path class="cls-1" d="M14.2,124.12v-1.18h5.93v1.18Z"/>
          <path class="cls-1" d="M32.7,128.69a5.09,5.09,0,0,1-1.12.79,5,5,0,0,1-1.21.44,6.68,6.68,0,0,1-1.39.14,6.09,6.09,0,0,1-2.9-.7,5.64,5.64,0,0,1-2.14-2A7,7,0,0,1,23,125a15.13,15.13,0,0,1-.29-3.22c0-.65,0-1.23.07-1.75a11.84,11.84,0,0,1,.22-1.46,7.62,7.62,0,0,1,.39-1.25,7.76,7.76,0,0,1,.59-1.1,5.64,5.64,0,0,1,2.14-2,6.09,6.09,0,0,1,2.9-.7,6.68,6.68,0,0,1,1.39.14,5,5,0,0,1,1.21.44,5.09,5.09,0,0,1,1.12.79,9.75,9.75,0,0,1,1.12,1.17l-.87.74a10.44,10.44,0,0,0-1-1,4.67,4.67,0,0,0-.91-.65,3.86,3.86,0,0,0-1-.34A5.62,5.62,0,0,0,29,114.7a4.58,4.58,0,0,0-4.07,2.17,5.43,5.43,0,0,0-.49,1,7.38,7.38,0,0,0-.33,1.09,11.15,11.15,0,0,0-.18,1.29c0,.47-.06,1-.06,1.58s0,1.11.06,1.58a11.15,11.15,0,0,0,.18,1.29,7.38,7.38,0,0,0,.33,1.09,5.43,5.43,0,0,0,.49,1A4.58,4.58,0,0,0,29,128.88a5.62,5.62,0,0,0,1.13-.11,3.86,3.86,0,0,0,1-.34,4.67,4.67,0,0,0,.91-.65,10.44,10.44,0,0,0,1-1l.87.73A9.18,9.18,0,0,1,32.7,128.69Z"/>
          <path class="cls-1" d="M47.7,121.79a15.13,15.13,0,0,1-.29,3.22,7,7,0,0,1-1,2.34,5.57,5.57,0,0,1-2.14,2,6.34,6.34,0,0,1-5.79,0,5.64,5.64,0,0,1-2.14-2,7,7,0,0,1-1-2.34,15.13,15.13,0,0,1-.29-3.22c0-.65,0-1.23.07-1.75a11.84,11.84,0,0,1,.22-1.46,7.62,7.62,0,0,1,.39-1.25,7.76,7.76,0,0,1,.59-1.1,5.64,5.64,0,0,1,2.14-2,6.34,6.34,0,0,1,5.79,0,5.57,5.57,0,0,1,2.14,2,6.86,6.86,0,0,1,.59,1.1,7.62,7.62,0,0,1,.39,1.25,11.84,11.84,0,0,1,.22,1.46C47.68,120.56,47.7,121.14,47.7,121.79Zm-1.15,0c0-.59,0-1.11-.06-1.58a9.27,9.27,0,0,0-.19-1.29,5.57,5.57,0,0,0-.33-1.09,6.33,6.33,0,0,0-.51-1,4.89,4.89,0,0,0-8.13,0,5.43,5.43,0,0,0-.49,1,7.38,7.38,0,0,0-.33,1.09,11.15,11.15,0,0,0-.18,1.29c0,.47-.06,1-.06,1.58s0,1.11.06,1.58a11.15,11.15,0,0,0,.18,1.29,7.38,7.38,0,0,0,.33,1.09,5.43,5.43,0,0,0,.49,1,4.89,4.89,0,0,0,8.13,0,6.33,6.33,0,0,0,.51-1,5.57,5.57,0,0,0,.33-1.09,9.27,9.27,0,0,0,.19-1.29C46.53,122.9,46.55,122.37,46.55,121.79Z"/>
          <path class="cls-1" d="M62.41,129.85v-13l-4.81,13H56.43l-4.78-12.93v12.93H50.47V113.73h1.18q.14.39.54,1.47c.27.71.58,1.55.93,2.5s.73,2,1.14,3,.78,2.11,1.14,3.11.69,1.88,1,2.66.51,1.36.65,1.71c.09-.28.23-.67.42-1.19s.41-1.11.66-1.78l.8-2.15.86-2.35c.3-.79.58-1.56.87-2.32s.54-1.44.77-2.08l.6-1.63c.17-.47.29-.8.37-1h1.2v16.12Z"/>
          <path class="cls-1" d="M79,129.85v-13l-4.8,13H73l-4.78-12.93v12.93H67V113.73h1.18l.55,1.47c.26.71.58,1.55.93,2.5s.73,2,1.13,3,.78,2.11,1.14,3.11.69,1.88,1,2.66.5,1.36.64,1.71c.09-.28.24-.67.43-1.19l.66-1.78c.24-.67.51-1.38.79-2.15s.58-1.56.87-2.35l.86-2.32c.29-.75.55-1.44.78-2.08l.6-1.63c.17-.47.29-.8.37-1h1.2v16.12Z"/>
          <path class="cls-1" d="M83.62,129.85V113.73h10v1.16H84.8v6h7.73V122H84.8v6.65h8.84v1.16Z"/>
          <path class="cls-1" d="M106.31,129.85l-3.46-5.77-.4-.64a3.69,3.69,0,0,0-.5-.61,1.93,1.93,0,0,0-.66-.45,2.05,2.05,0,0,0-.89-.17H97.82v7.64H96.64V113.73H102a12.62,12.62,0,0,1,1.69.13,4.11,4.11,0,0,1,1.62.59,3.54,3.54,0,0,1,1.28,1.43,4.58,4.58,0,0,1,.45,2.08,4.69,4.69,0,0,1-.45,2.09,3.57,3.57,0,0,1-1.28,1.44,4.07,4.07,0,0,1-1.18.5,7.79,7.79,0,0,1-1.27.19,5.22,5.22,0,0,1,.54.66c.15.22.28.44.41.64.49.83,1,1.62,1.43,2.38l1.22,2,1.18,2ZM105.92,118a3.42,3.42,0,0,0-.31-1.51,2.26,2.26,0,0,0-.89-1,3.26,3.26,0,0,0-1.27-.45,9.55,9.55,0,0,0-1.41-.1H97.82V121H102a11.33,11.33,0,0,0,1.4-.09,3.24,3.24,0,0,0,1.28-.44,2.26,2.26,0,0,0,.89-1A3.51,3.51,0,0,0,105.92,118Z"/>
          <path class="cls-1" d="M119.21,128.69a5.33,5.33,0,0,1-1.12.79,5.15,5.15,0,0,1-1.21.44,6.78,6.78,0,0,1-1.4.14,6.12,6.12,0,0,1-2.9-.7,5.54,5.54,0,0,1-2.13-2,7,7,0,0,1-1-2.34,15.13,15.13,0,0,1-.29-3.22c0-.65,0-1.23.07-1.75a10.2,10.2,0,0,1,.22-1.46,7.62,7.62,0,0,1,.39-1.25,6.86,6.86,0,0,1,.59-1.1,5.54,5.54,0,0,1,2.13-2,6.12,6.12,0,0,1,2.9-.7,6.78,6.78,0,0,1,1.4.14,5.15,5.15,0,0,1,1.21.44,5.33,5.33,0,0,1,1.12.79,11.61,11.61,0,0,1,1.12,1.17l-.88.74a10.44,10.44,0,0,0-1-1,4.38,4.38,0,0,0-.91-.65,3.73,3.73,0,0,0-1-.34,5.55,5.55,0,0,0-1.13-.11,4.56,4.56,0,0,0-4.06,2.17,5.49,5.49,0,0,0-.5,1,6.36,6.36,0,0,0-.32,1.09,9.27,9.27,0,0,0-.19,1.29c0,.47,0,1,0,1.58s0,1.11,0,1.58a9.27,9.27,0,0,0,.19,1.29,6.36,6.36,0,0,0,.32,1.09,5.49,5.49,0,0,0,.5,1,4.56,4.56,0,0,0,4.06,2.17,5.55,5.55,0,0,0,1.13-.11,3.73,3.73,0,0,0,1-.34,4.38,4.38,0,0,0,.91-.65,10.44,10.44,0,0,0,1-1l.88.73A10.8,10.8,0,0,1,119.21,128.69Z"/>
          <path class="cls-1" d="M123.1,129.85V113.73h10v1.16h-8.84v6H132V122h-7.73v6.65h8.84v1.16Z"/>
          <path class="cls-1" d="M153.41,118.14a4.84,4.84,0,0,1-.46,2.17,3.43,3.43,0,0,1-1.34,1.48,4.44,4.44,0,0,1-1.68.62,10.69,10.69,0,0,1-1.76.14h-4.64v7.3h-1.18V113.73h5.82a13.39,13.39,0,0,1,1.76.13,4.26,4.26,0,0,1,1.68.61A3.46,3.46,0,0,1,153,116,5,5,0,0,1,153.41,118.14Zm-1.15,0a3.58,3.58,0,0,0-.34-1.6,2.47,2.47,0,0,0-.93-1.08,3.56,3.56,0,0,0-1.35-.47,10.58,10.58,0,0,0-1.47-.1h-4.64v6.48h4.64a12.33,12.33,0,0,0,1.47-.09,3.24,3.24,0,0,0,1.35-.46,2.59,2.59,0,0,0,.93-1.08A3.58,3.58,0,0,0,152.26,118.14Z"/>
          <path class="cls-1" d="M156,129.85V113.73h10v1.16h-8.84v6h7.73V122h-7.73v6.65H166v1.16Z"/>
          <path class="cls-1" d="M180.88,121.79a15.21,15.21,0,0,1-.28,3.22,7.26,7.26,0,0,1-1,2.34,5.64,5.64,0,0,1-2.14,2,6.12,6.12,0,0,1-2.9.7,6.05,6.05,0,0,1-2.89-.7,5.57,5.57,0,0,1-2.14-2,7,7,0,0,1-1-2.34,15.13,15.13,0,0,1-.29-3.22c0-.65,0-1.23.07-1.75a10.2,10.2,0,0,1,.22-1.46,7.62,7.62,0,0,1,.39-1.25,6.86,6.86,0,0,1,.59-1.1,5.57,5.57,0,0,1,2.14-2,6.05,6.05,0,0,1,2.89-.7,6.12,6.12,0,0,1,2.9.7,5.64,5.64,0,0,1,2.14,2,7.29,7.29,0,0,1,1,2.35,11.84,11.84,0,0,1,.22,1.46C180.86,120.56,180.88,121.14,180.88,121.79Zm-1.15,0c0-.59,0-1.11-.06-1.58a11.15,11.15,0,0,0-.18-1.29,6.34,6.34,0,0,0-.34-1.09,6.26,6.26,0,0,0-.5-1,4.89,4.89,0,0,0-8.13,0,5.49,5.49,0,0,0-.5,1,6.36,6.36,0,0,0-.32,1.09,8,8,0,0,0-.18,1.29c0,.47-.06,1-.06,1.58s0,1.11.06,1.58a8,8,0,0,0,.18,1.29,6.36,6.36,0,0,0,.32,1.09,5.49,5.49,0,0,0,.5,1,4.89,4.89,0,0,0,8.13,0,6.26,6.26,0,0,0,.5-1,6.34,6.34,0,0,0,.34-1.09,11.15,11.15,0,0,0,.18-1.29C179.71,122.9,179.73,122.37,179.73,121.79Z"/>
          <path class="cls-1" d="M194.71,118.14a4.84,4.84,0,0,1-.46,2.17,3.43,3.43,0,0,1-1.34,1.48,4.44,4.44,0,0,1-1.68.62,10.69,10.69,0,0,1-1.76.14h-4.64v7.3h-1.18V113.73h5.82a13.39,13.39,0,0,1,1.76.13,4.26,4.26,0,0,1,1.68.61,3.46,3.46,0,0,1,1.34,1.49A5,5,0,0,1,194.71,118.14Zm-1.15,0a3.58,3.58,0,0,0-.34-1.6,2.47,2.47,0,0,0-.93-1.08,3.56,3.56,0,0,0-1.35-.47,10.58,10.58,0,0,0-1.47-.1h-4.64v6.48h4.64a12.33,12.33,0,0,0,1.47-.09,3.24,3.24,0,0,0,1.35-.46,2.59,2.59,0,0,0,.93-1.08A3.58,3.58,0,0,0,193.56,118.14Z"/>
          <path class="cls-1" d="M197.25,129.85V113.73h1.18v15h7.9v1.16Z"/>
          <path class="cls-1" d="M208.4,129.85V113.73h10v1.16h-8.84v6h7.74V122h-7.74v6.65h8.84v1.16Z"/>
        </g>
      </g>
    </g>
  </g>
</svg>
