<?xml version="1.0" encoding="UTF-8" standalone="no"?><!DOCTYPE svg PUBLIC "-//W3C//DTD SVG 1.1//EN" "http://www.w3.org/Graphics/SVG/1.1/DTD/svg11.dtd"><svg width="100%" height="100%" viewBox="0 0 500 500" version="1.1" xmlns="http://www.w3.org/2000/svg" xmlns:xlink="http://www.w3.org/1999/xlink" xml:space="preserve" xmlns:serif="http://www.serif.com/" style="fill-rule:evenodd;clip-rule:evenodd;stroke-linejoin:round;stroke-miterlimit:2;"><rect x="-68.321" y="-68.321" width="636.641" height="636.641" style="fill:none;"/><g><rect id="p" x="0.505" y="0.505" width="17.207" height="17.207" style="fill:#fff;"/><rect id="p1" serif:id="p" x="0.505" y="17.712" width="17.207" height="17.207" style="fill:#fff;"/><rect id="p2" serif:id="p" x="0.505" y="34.919" width="17.207" height="17.207" style="fill:#fff;"/><rect id="p3" serif:id="p" x="0.505" y="52.125" width="17.207" height="17.207" style="fill:#fff;"/><rect id="p4" serif:id="p" x="0.505" y="69.332" width="17.207" height="17.207" style="fill:#fff;"/><rect id="p5" serif:id="p" x="0.505" y="86.538" width="17.207" height="17.207" style="fill:#fff;"/><rect id="p6" serif:id="p" x="0.505" y="103.745" width="17.207" height="17.207" style="fill:#fff;"/><rect id="p7" serif:id="p" x="0.505" y="206.984" width="17.207" height="17.207" style="fill:#fff;"/><rect id="p8" serif:id="p" x="0.505" y="241.397" width="17.207" height="17.207" style="fill:#fff;"/><rect id="p9" serif:id="p" x="0.505" y="258.603" width="17.207" height="17.207" style="fill:#fff;"/><rect id="p10" serif:id="p" x="0.505" y="379.049" width="17.207" height="17.207" style="fill:#fff;"/><rect id="p11" serif:id="p" x="0.505" y="396.255" width="17.207" height="17.207" style="fill:#fff;"/><rect id="p12" serif:id="p" x="0.505" y="413.462" width="17.207" height="17.207" style="fill:#fff;"/><rect id="p13" serif:id="p" x="0.505" y="430.668" width="17.207" height="17.207" style="fill:#fff;"/><rect id="p14" serif:id="p" x="0.505" y="447.875" width="17.207" height="17.207" style="fill:#fff;"/><rect id="p15" serif:id="p" x="0.505" y="465.081" width="17.207" height="17.207" style="fill:#fff;"/><rect id="p16" serif:id="p" x="0.505" y="482.288" width="17.207" height="17.207" style="fill:#fff;"/><rect id="p17" serif:id="p" x="17.712" y="0.505" width="17.207" height="17.207" style="fill:#fff;"/><rect id="p18" serif:id="p" x="17.712" y="103.745" width="17.207" height="17.207" style="fill:#fff;"/><rect id="p19" serif:id="p" x="17.712" y="138.158" width="17.207" height="17.207" style="fill:#fff;"/><rect id="p20" serif:id="p" x="17.712" y="155.364" width="17.207" height="17.207" style="fill:#fff;"/><rect id="p21" serif:id="p" x="17.712" y="172.571" width="17.207" height="17.207" style="fill:#fff;"/><rect id="p22" serif:id="p" x="17.712" y="206.984" width="17.207" height="17.207" style="fill:#fff;"/><rect id="p23" serif:id="p" x="17.712" y="224.19" width="17.207" height="17.207" style="fill:#fff;"/><rect id="p24" serif:id="p" x="17.712" y="379.049" width="17.207" height="17.207" style="fill:#fff;"/><rect id="p25" serif:id="p" x="17.712" y="482.288" width="17.207" height="17.207" style="fill:#fff;"/><rect id="p26" serif:id="p" x="34.919" y="0.505" width="17.207" height="17.207" style="fill:#fff;"/><rect id="p27" serif:id="p" x="34.919" y="34.919" width="17.207" height="17.207" style="fill:#fff;"/><rect id="p28" serif:id="p" x="34.919" y="52.125" width="17.207" height="17.207" style="fill:#fff;"/><rect id="p29" serif:id="p" x="34.919" y="69.332" width="17.207" height="17.207" style="fill:#fff;"/><rect id="p30" serif:id="p" x="34.919" y="103.745" width="17.207" height="17.207" style="fill:#fff;"/><rect id="p31" serif:id="p" x="34.919" y="155.364" width="17.207" height="17.207" style="fill:#fff;"/><rect id="p32" serif:id="p" x="34.919" y="189.777" width="17.207" height="17.207" style="fill:#fff;"/><rect id="p33" serif:id="p" x="34.919" y="224.19" width="17.207" height="17.207" style="fill:#fff;"/><rect id="p34" serif:id="p" x="34.919" y="241.397" width="17.207" height="17.207" style="fill:#fff;"/><rect id="p35" serif:id="p" x="34.919" y="258.603" width="17.207" height="17.207" style="fill:#fff;"/><rect id="p36" serif:id="p" x="34.919" y="293.016" width="17.207" height="17.207" style="fill:#fff;"/><rect id="p37" serif:id="p" x="34.919" y="327.429" width="17.207" height="17.207" style="fill:#fff;"/><rect id="p38" serif:id="p" x="34.919" y="379.049" width="17.207" height="17.207" style="fill:#fff;"/><rect id="p39" serif:id="p" x="34.919" y="413.462" width="17.207" height="17.207" style="fill:#fff;"/><rect id="p40" serif:id="p" x="34.919" y="430.668" width="17.207" height="17.207" style="fill:#fff;"/><rect id="p41" serif:id="p" x="34.919" y="447.875" width="17.207" height="17.207" style="fill:#fff;"/><rect id="p42" serif:id="p" x="34.919" y="482.288" width="17.207" height="17.207" style="fill:#fff;"/><rect id="p43" serif:id="p" x="52.125" y="0.505" width="17.207" height="17.207" style="fill:#fff;"/><rect id="p44" serif:id="p" x="52.125" y="34.919" width="17.207" height="17.207" style="fill:#fff;"/><rect id="p45" serif:id="p" x="52.125" y="52.125" width="17.207" height="17.207" style="fill:#fff;"/><rect id="p46" serif:id="p" x="52.125" y="69.332" width="17.207" height="17.207" style="fill:#fff;"/><rect id="p47" serif:id="p" x="52.125" y="103.745" width="17.207" height="17.207" style="fill:#fff;"/><rect id="p48" serif:id="p" x="52.125" y="138.158" width="17.207" height="17.207" style="fill:#fff;"/><rect id="p49" serif:id="p" x="52.125" y="293.016" width="17.207" height="17.207" style="fill:#fff;"/><rect id="p50" serif:id="p" x="52.125" y="310.223" width="17.207" height="17.207" style="fill:#fff;"/><rect id="p51" serif:id="p" x="52.125" y="327.429" width="17.207" height="17.207" style="fill:#fff;"/><rect id="p52" serif:id="p" x="52.125" y="344.636" width="17.207" height="17.207" style="fill:#fff;"/><rect id="p53" serif:id="p" x="52.125" y="379.049" width="17.207" height="17.207" style="fill:#fff;"/><rect id="p54" serif:id="p" x="52.125" y="413.462" width="17.207" height="17.207" style="fill:#fff;"/><rect id="p55" serif:id="p" x="52.125" y="430.668" width="17.207" height="17.207" style="fill:#fff;"/><rect id="p56" serif:id="p" x="52.125" y="447.875" width="17.207" height="17.207" style="fill:#fff;"/><rect id="p57" serif:id="p" x="52.125" y="482.288" width="17.207" height="17.207" style="fill:#fff;"/><rect id="p58" serif:id="p" x="69.332" y="0.505" width="17.207" height="17.207" style="fill:#fff;"/><rect id="p59" serif:id="p" x="69.332" y="34.919" width="17.207" height="17.207" style="fill:#fff;"/><rect id="p60" serif:id="p" x="69.332" y="52.125" width="17.207" height="17.207" style="fill:#fff;"/><rect id="p61" serif:id="p" x="69.332" y="69.332" width="17.207" height="17.207" style="fill:#fff;"/><rect id="p62" serif:id="p" x="69.332" y="103.745" width="17.207" height="17.207" style="fill:#fff;"/><rect id="p63" serif:id="p" x="69.332" y="138.158" width="17.207" height="17.207" style="fill:#fff;"/><rect id="p64" serif:id="p" x="69.332" y="172.571" width="17.207" height="17.207" style="fill:#fff;"/><rect id="p65" serif:id="p" x="69.332" y="189.777" width="17.207" height="17.207" style="fill:#fff;"/><rect id="p66" serif:id="p" x="69.332" y="206.984" width="17.207" height="17.207" style="fill:#fff;"/><rect id="p67" serif:id="p" x="69.332" y="241.397" width="17.207" height="17.207" style="fill:#fff;"/><rect id="p68" serif:id="p" x="69.332" y="258.603" width="17.207" height="17.207" style="fill:#fff;"/><rect id="p69" serif:id="p" x="69.332" y="275.81" width="17.207" height="17.207" style="fill:#fff;"/><rect id="p70" serif:id="p" x="69.332" y="293.016" width="17.207" height="17.207" style="fill:#fff;"/><rect id="p71" serif:id="p" x="69.332" y="379.049" width="17.207" height="17.207" style="fill:#fff;"/><rect id="p72" serif:id="p" x="69.332" y="413.462" width="17.207" height="17.207" style="fill:#fff;"/><rect id="p73" serif:id="p" x="69.332" y="430.668" width="17.207" height="17.207" style="fill:#fff;"/><rect id="p74" serif:id="p" x="69.332" y="447.875" width="17.207" height="17.207" style="fill:#fff;"/><rect id="p75" serif:id="p" x="69.332" y="482.288" width="17.207" height="17.207" style="fill:#fff;"/><rect id="p76" serif:id="p" x="86.538" y="0.505" width="17.207" height="17.207" style="fill:#fff;"/><rect id="p77" serif:id="p" x="86.538" y="103.745" width="17.207" height="17.207" style="fill:#fff;"/><rect id="p78" serif:id="p" x="86.538" y="138.158" width="17.207" height="17.207" style="fill:#fff;"/><rect id="p79" serif:id="p" x="86.538" y="155.364" width="17.207" height="17.207" style="fill:#fff;"/><rect id="p80" serif:id="p" x="86.538" y="172.571" width="17.207" height="17.207" style="fill:#fff;"/><rect id="p81" serif:id="p" x="86.538" y="189.777" width="17.207" height="17.207" style="fill:#fff;"/><rect id="p82" serif:id="p" x="86.538" y="206.984" width="17.207" height="17.207" style="fill:#fff;"/><rect id="p83" serif:id="p" x="86.538" y="241.397" width="17.207" height="17.207" style="fill:#fff;"/><rect id="p84" serif:id="p" x="86.538" y="379.049" width="17.207" height="17.207" style="fill:#fff;"/><rect id="p85" serif:id="p" x="86.538" y="482.288" width="17.207" height="17.207" style="fill:#fff;"/><rect id="p86" serif:id="p" x="103.745" y="0.505" width="17.207" height="17.207" style="fill:#fff;"/><rect id="p87" serif:id="p" x="103.745" y="17.712" width="17.207" height="17.207" style="fill:#fff;"/><rect id="p88" serif:id="p" x="103.745" y="34.919" width="17.207" height="17.207" style="fill:#fff;"/><rect id="p89" serif:id="p" x="103.745" y="52.125" width="17.207" height="17.207" style="fill:#fff;"/><rect id="p90" serif:id="p" x="103.745" y="69.332" width="17.207" height="17.207" style="fill:#fff;"/><rect id="p91" serif:id="p" x="103.745" y="86.538" width="17.207" height="17.207" style="fill:#fff;"/><rect id="p92" serif:id="p" x="103.745" y="103.745" width="17.207" height="17.207" style="fill:#fff;"/><rect id="p93" serif:id="p" x="103.745" y="138.158" width="17.207" height="17.207" style="fill:#fff;"/><rect id="p94" serif:id="p" x="103.745" y="172.571" width="17.207" height="17.207" style="fill:#fff;"/><rect id="p95" serif:id="p" x="103.745" y="206.984" width="17.207" height="17.207" style="fill:#fff;"/><rect id="p96" serif:id="p" x="103.745" y="241.397" width="17.207" height="17.207" style="fill:#fff;"/><rect id="p97" serif:id="p" x="103.745" y="275.81" width="17.207" height="17.207" style="fill:#fff;"/><rect id="p98" serif:id="p" x="103.745" y="310.223" width="17.207" height="17.207" style="fill:#fff;"/><rect id="p99" serif:id="p" x="103.745" y="344.636" width="17.207" height="17.207" style="fill:#fff;"/><rect id="p100" serif:id="p" x="103.745" y="379.049" width="17.207" height="17.207" style="fill:#fff;"/><rect id="p101" serif:id="p" x="103.745" y="396.255" width="17.207" height="17.207" style="fill:#fff;"/><rect id="p102" serif:id="p" x="103.745" y="413.462" width="17.207" height="17.207" style="fill:#fff;"/><rect id="p103" serif:id="p" x="103.745" y="430.668" width="17.207" height="17.207" style="fill:#fff;"/><rect id="p104" serif:id="p" x="103.745" y="447.875" width="17.207" height="17.207" style="fill:#fff;"/><rect id="p105" serif:id="p" x="103.745" y="465.081" width="17.207" height="17.207" style="fill:#fff;"/><rect id="p106" serif:id="p" x="103.745" y="482.288" width="17.207" height="17.207" style="fill:#fff;"/><rect id="p107" serif:id="p" x="120.951" y="155.364" width="17.207" height="17.207" style="fill:#fff;"/><rect id="p108" serif:id="p" x="120.951" y="172.571" width="17.207" height="17.207" style="fill:#fff;"/><rect id="p109" serif:id="p" x="120.951" y="189.777" width="17.207" height="17.207" style="fill:#fff;"/><rect id="p110" serif:id="p" x="120.951" y="224.19" width="17.207" height="17.207" style="fill:#fff;"/><rect id="p111" serif:id="p" x="120.951" y="275.81" width="17.207" height="17.207" style="fill:#fff;"/><rect id="p112" serif:id="p" x="138.158" y="17.712" width="17.207" height="17.207" style="fill:#fff;"/><rect id="p113" serif:id="p" x="138.158" y="52.125" width="17.207" height="17.207" style="fill:#fff;"/><rect id="p114" serif:id="p" x="138.158" y="69.332" width="17.207" height="17.207" style="fill:#fff;"/><rect id="p115" serif:id="p" x="138.158" y="103.745" width="17.207" height="17.207" style="fill:#fff;"/><rect id="p116" serif:id="p" x="138.158" y="120.951" width="17.207" height="17.207" style="fill:#fff;"/><rect id="p117" serif:id="p" x="138.158" y="138.158" width="17.207" height="17.207" style="fill:#fff;"/><rect id="p118" serif:id="p" x="138.158" y="155.364" width="17.207" height="17.207" style="fill:#fff;"/><rect id="p119" serif:id="p" x="138.158" y="189.777" width="17.207" height="17.207" style="fill:#fff;"/><rect id="p120" serif:id="p" x="138.158" y="206.984" width="17.207" height="17.207" style="fill:#fff;"/><rect id="p121" serif:id="p" x="138.158" y="241.397" width="17.207" height="17.207" style="fill:#fff;"/><rect id="p122" serif:id="p" x="138.158" y="258.603" width="17.207" height="17.207" style="fill:#fff;"/><rect id="p123" serif:id="p" x="138.158" y="275.81" width="17.207" height="17.207" style="fill:#fff;"/><rect id="p124" serif:id="p" x="138.158" y="327.429" width="17.207" height="17.207" style="fill:#fff;"/><rect id="p125" serif:id="p" x="138.158" y="344.636" width="17.207" height="17.207" style="fill:#fff;"/><rect id="p126" serif:id="p" x="138.158" y="361.842" width="17.207" height="17.207" style="fill:#fff;"/><rect id="p127" serif:id="p" x="138.158" y="396.255" width="17.207" height="17.207" style="fill:#fff;"/><rect id="p128" serif:id="p" x="138.158" y="413.462" width="17.207" height="17.207" style="fill:#fff;"/><rect id="p129" serif:id="p" x="138.158" y="430.668" width="17.207" height="17.207" style="fill:#fff;"/><rect id="p130" serif:id="p" x="138.158" y="465.081" width="17.207" height="17.207" style="fill:#fff;"/><rect id="p131" serif:id="p" x="155.364" y="0.505" width="17.207" height="17.207" style="fill:#fff;"/><rect id="p132" serif:id="p" x="155.364" y="34.919" width="17.207" height="17.207" style="fill:#fff;"/><rect id="p133" serif:id="p" x="155.364" y="86.538" width="17.207" height="17.207" style="fill:#fff;"/><rect id="p134" serif:id="p" x="155.364" y="120.951" width="17.207" height="17.207" style="fill:#fff;"/><rect id="p135" serif:id="p" x="155.364" y="138.158" width="17.207" height="17.207" style="fill:#fff;"/><rect id="p136" serif:id="p" x="155.364" y="172.571" width="17.207" height="17.207" style="fill:#fff;"/><rect id="p137" serif:id="p" x="155.364" y="206.984" width="17.207" height="17.207" style="fill:#fff;"/><rect id="p138" serif:id="p" x="155.364" y="258.603" width="17.207" height="17.207" style="fill:#fff;"/><rect id="p139" serif:id="p" x="155.364" y="310.223" width="17.207" height="17.207" style="fill:#fff;"/><rect id="p140" serif:id="p" x="155.364" y="344.636" width="17.207" height="17.207" style="fill:#fff;"/><rect id="p141" serif:id="p" x="155.364" y="413.462" width="17.207" height="17.207" style="fill:#fff;"/><rect id="p142" serif:id="p" x="155.364" y="447.875" width="17.207" height="17.207" style="fill:#fff;"/><rect id="p143" serif:id="p" x="155.364" y="465.081" width="17.207" height="17.207" style="fill:#fff;"/><rect id="p144" serif:id="p" x="155.364" y="482.288" width="17.207" height="17.207" style="fill:#fff;"/><rect id="p145" serif:id="p" x="172.571" y="17.712" width="17.207" height="17.207" style="fill:#fff;"/><rect id="p146" serif:id="p" x="172.571" y="34.919" width="17.207" height="17.207" style="fill:#fff;"/><rect id="p147" serif:id="p" x="172.571" y="52.125" width="17.207" height="17.207" style="fill:#fff;"/><rect id="p148" serif:id="p" x="172.571" y="69.332" width="17.207" height="17.207" style="fill:#fff;"/><rect id="p149" serif:id="p" x="172.571" y="86.538" width="17.207" height="17.207" style="fill:#fff;"/><rect id="p150" serif:id="p" x="172.571" y="103.745" width="17.207" height="17.207" style="fill:#fff;"/><rect id="p151" serif:id="p" x="172.571" y="120.951" width="17.207" height="17.207" style="fill:#fff;"/><rect id="p152" serif:id="p" x="172.571" y="275.81" width="17.207" height="17.207" style="fill:#fff;"/><rect id="p153" serif:id="p" x="172.571" y="293.016" width="17.207" height="17.207" style="fill:#fff;"/><rect id="p154" serif:id="p" x="172.571" y="310.223" width="17.207" height="17.207" style="fill:#fff;"/><rect id="p155" serif:id="p" x="172.571" y="327.429" width="17.207" height="17.207" style="fill:#fff;"/><rect id="p156" serif:id="p" x="172.571" y="344.636" width="17.207" height="17.207" style="fill:#fff;"/><rect id="p157" serif:id="p" x="172.571" y="379.049" width="17.207" height="17.207" style="fill:#fff;"/><rect id="p158" serif:id="p" x="172.571" y="396.255" width="17.207" height="17.207" style="fill:#fff;"/><rect id="p159" serif:id="p" x="172.571" y="430.668" width="17.207" height="17.207" style="fill:#fff;"/><rect id="p160" serif:id="p" x="172.571" y="447.875" width="17.207" height="17.207" style="fill:#fff;"/><rect id="p161" serif:id="p" x="172.571" y="482.288" width="17.207" height="17.207" style="fill:#fff;"/><rect id="p162" serif:id="p" x="189.777" y="0.505" width="17.207" height="17.207" style="fill:#fff;"/><rect id="p163" serif:id="p" x="189.777" y="86.538" width="17.207" height="17.207" style="fill:#fff;"/><rect id="p164" serif:id="p" x="189.777" y="138.158" width="17.207" height="17.207" style="fill:#fff;"/><rect id="p165" serif:id="p" x="189.777" y="172.571" width="17.207" height="17.207" style="fill:#fff;"/><rect id="p166" serif:id="p" x="189.777" y="189.777" width="17.207" height="17.207" style="fill:#fff;"/><rect id="p167" serif:id="p" x="189.777" y="241.397" width="17.207" height="17.207" style="fill:#fff;"/><rect id="p168" serif:id="p" x="189.777" y="258.603" width="17.207" height="17.207" style="fill:#fff;"/><rect id="p169" serif:id="p" x="189.777" y="275.81" width="17.207" height="17.207" style="fill:#fff;"/><rect id="p170" serif:id="p" x="189.777" y="344.636" width="17.207" height="17.207" style="fill:#fff;"/><rect id="p171" serif:id="p" x="189.777" y="396.255" width="17.207" height="17.207" style="fill:#fff;"/><rect id="p172" serif:id="p" x="189.777" y="447.875" width="17.207" height="17.207" style="fill:#fff;"/><rect id="p173" serif:id="p" x="189.777" y="465.081" width="17.207" height="17.207" style="fill:#fff;"/><rect id="p174" serif:id="p" x="189.777" y="482.288" width="17.207" height="17.207" style="fill:#fff;"/><rect id="p175" serif:id="p" x="206.984" y="0.505" width="17.207" height="17.207" style="fill:#fff;"/><rect id="p176" serif:id="p" x="206.984" y="52.125" width="17.207" height="17.207" style="fill:#fff;"/><rect id="p177" serif:id="p" x="206.984" y="69.332" width="17.207" height="17.207" style="fill:#fff;"/><rect id="p178" serif:id="p" x="206.984" y="103.745" width="17.207" height="17.207" style="fill:#fff;"/><rect id="p179" serif:id="p" x="206.984" y="138.158" width="17.207" height="17.207" style="fill:#fff;"/><rect id="p180" serif:id="p" x="206.984" y="172.571" width="17.207" height="17.207" style="fill:#fff;"/><rect id="p181" serif:id="p" x="206.984" y="189.777" width="17.207" height="17.207" style="fill:#fff;"/><rect id="p182" serif:id="p" x="206.984" y="241.397" width="17.207" height="17.207" style="fill:#fff;"/><rect id="p183" serif:id="p" x="206.984" y="258.603" width="17.207" height="17.207" style="fill:#fff;"/><rect id="p184" serif:id="p" x="206.984" y="293.016" width="17.207" height="17.207" style="fill:#fff;"/><rect id="p185" serif:id="p" x="206.984" y="310.223" width="17.207" height="17.207" style="fill:#fff;"/><rect id="p186" serif:id="p" x="206.984" y="361.842" width="17.207" height="17.207" style="fill:#fff;"/><rect id="p187" serif:id="p" x="206.984" y="430.668" width="17.207" height="17.207" style="fill:#fff;"/><rect id="p188" serif:id="p" x="206.984" y="447.875" width="17.207" height="17.207" style="fill:#fff;"/><rect id="p189" serif:id="p" x="206.984" y="465.081" width="17.207" height="17.207" style="fill:#fff;"/><rect id="p190" serif:id="p" x="224.19" y="0.505" width="17.207" height="17.207" style="fill:#fff;"/><rect id="p191" serif:id="p" x="224.19" y="17.712" width="17.207" height="17.207" style="fill:#fff;"/><rect id="p192" serif:id="p" x="224.19" y="69.332" width="17.207" height="17.207" style="fill:#fff;"/><rect id="p193" serif:id="p" x="224.19" y="120.951" width="17.207" height="17.207" style="fill:#fff;"/><rect id="p194" serif:id="p" x="224.19" y="155.364" width="17.207" height="17.207" style="fill:#fff;"/><rect id="p195" serif:id="p" x="224.19" y="206.984" width="17.207" height="17.207" style="fill:#fff;"/><rect id="p196" serif:id="p" x="224.19" y="258.603" width="17.207" height="17.207" style="fill:#fff;"/><rect id="p197" serif:id="p" x="224.19" y="275.81" width="17.207" height="17.207" style="fill:#fff;"/><rect id="p198" serif:id="p" x="224.19" y="310.223" width="17.207" height="17.207" style="fill:#fff;"/><rect id="p199" serif:id="p" x="224.19" y="327.429" width="17.207" height="17.207" style="fill:#fff;"/><rect id="p200" serif:id="p" x="224.19" y="344.636" width="17.207" height="17.207" style="fill:#fff;"/><rect id="p201" serif:id="p" x="224.19" y="361.842" width="17.207" height="17.207" style="fill:#fff;"/><rect id="p202" serif:id="p" x="224.19" y="413.462" width="17.207" height="17.207" style="fill:#fff;"/><rect id="p203" serif:id="p" x="224.19" y="430.668" width="17.207" height="17.207" style="fill:#fff;"/><rect id="p204" serif:id="p" x="224.19" y="447.875" width="17.207" height="17.207" style="fill:#fff;"/><rect id="p205" serif:id="p" x="224.19" y="482.288" width="17.207" height="17.207" style="fill:#fff;"/><rect id="p206" serif:id="p" x="241.397" y="0.505" width="17.207" height="17.207" style="fill:#fff;"/><rect id="p207" serif:id="p" x="241.397" y="17.712" width="17.207" height="17.207" style="fill:#fff;"/><rect id="p208" serif:id="p" x="241.397" y="103.745" width="17.207" height="17.207" style="fill:#fff;"/><rect id="p209" serif:id="p" x="241.397" y="155.364" width="17.207" height="17.207" style="fill:#fff;"/><rect id="p210" serif:id="p" x="241.397" y="172.571" width="17.207" height="17.207" style="fill:#fff;"/><rect id="p211" serif:id="p" x="241.397" y="206.984" width="17.207" height="17.207" style="fill:#fff;"/><rect id="p212" serif:id="p" x="241.397" y="224.19" width="17.207" height="17.207" style="fill:#fff;"/><rect id="p213" serif:id="p" x="241.397" y="275.81" width="17.207" height="17.207" style="fill:#fff;"/><rect id="p214" serif:id="p" x="241.397" y="310.223" width="17.207" height="17.207" style="fill:#fff;"/><rect id="p215" serif:id="p" x="241.397" y="396.255" width="17.207" height="17.207" style="fill:#fff;"/><rect id="p216" serif:id="p" x="241.397" y="447.875" width="17.207" height="17.207" style="fill:#fff;"/><rect id="p217" serif:id="p" x="241.397" y="465.081" width="17.207" height="17.207" style="fill:#fff;"/><rect id="p218" serif:id="p" x="258.603" y="0.505" width="17.207" height="17.207" style="fill:#fff;"/><rect id="p219" serif:id="p" x="258.603" y="52.125" width="17.207" height="17.207" style="fill:#fff;"/><rect id="p220" serif:id="p" x="258.603" y="69.332" width="17.207" height="17.207" style="fill:#fff;"/><rect id="p221" serif:id="p" x="258.603" y="138.158" width="17.207" height="17.207" style="fill:#fff;"/><rect id="p222" serif:id="p" x="258.603" y="155.364" width="17.207" height="17.207" style="fill:#fff;"/><rect id="p223" serif:id="p" x="258.603" y="206.984" width="17.207" height="17.207" style="fill:#fff;"/><rect id="p224" serif:id="p" x="258.603" y="224.19" width="17.207" height="17.207" style="fill:#fff;"/><rect id="p225" serif:id="p" x="258.603" y="258.603" width="17.207" height="17.207" style="fill:#fff;"/><rect id="p226" serif:id="p" x="258.603" y="275.81" width="17.207" height="17.207" style="fill:#fff;"/><rect id="p227" serif:id="p" x="258.603" y="327.429" width="17.207" height="17.207" style="fill:#fff;"/><rect id="p228" serif:id="p" x="258.603" y="361.842" width="17.207" height="17.207" style="fill:#fff;"/><rect id="p229" serif:id="p" x="258.603" y="379.049" width="17.207" height="17.207" style="fill:#fff;"/><rect id="p230" serif:id="p" x="258.603" y="447.875" width="17.207" height="17.207" style="fill:#fff;"/><rect id="p231" serif:id="p" x="258.603" y="482.288" width="17.207" height="17.207" style="fill:#fff;"/><rect id="p232" serif:id="p" x="275.81" y="0.505" width="17.207" height="17.207" style="fill:#fff;"/><rect id="p233" serif:id="p" x="275.81" y="34.919" width="17.207" height="17.207" style="fill:#fff;"/><rect id="p234" serif:id="p" x="275.81" y="86.538" width="17.207" height="17.207" style="fill:#fff;"/><rect id="p235" serif:id="p" x="275.81" y="103.745" width="17.207" height="17.207" style="fill:#fff;"/><rect id="p236" serif:id="p" x="275.81" y="120.951" width="17.207" height="17.207" style="fill:#fff;"/><rect id="p237" serif:id="p" x="275.81" y="155.364" width="17.207" height="17.207" style="fill:#fff;"/><rect id="p238" serif:id="p" x="275.81" y="189.777" width="17.207" height="17.207" style="fill:#fff;"/><rect id="p239" serif:id="p" x="275.81" y="206.984" width="17.207" height="17.207" style="fill:#fff;"/><rect id="p240" serif:id="p" x="275.81" y="258.603" width="17.207" height="17.207" style="fill:#fff;"/><rect id="p241" serif:id="p" x="275.81" y="310.223" width="17.207" height="17.207" style="fill:#fff;"/><rect id="p242" serif:id="p" x="275.81" y="327.429" width="17.207" height="17.207" style="fill:#fff;"/><rect id="p243" serif:id="p" x="275.81" y="344.636" width="17.207" height="17.207" style="fill:#fff;"/><rect id="p244" serif:id="p" x="275.81" y="379.049" width="17.207" height="17.207" style="fill:#fff;"/><rect id="p245" serif:id="p" x="275.81" y="396.255" width="17.207" height="17.207" style="fill:#fff;"/><rect id="p246" serif:id="p" x="275.81" y="465.081" width="17.207" height="17.207" style="fill:#fff;"/><rect id="p247" serif:id="p" x="293.016" y="0.505" width="17.207" height="17.207" style="fill:#fff;"/><rect id="p248" serif:id="p" x="293.016" y="52.125" width="17.207" height="17.207" style="fill:#fff;"/><rect id="p249" serif:id="p" x="293.016" y="120.951" width="17.207" height="17.207" style="fill:#fff;"/><rect id="p250" serif:id="p" x="293.016" y="155.364" width="17.207" height="17.207" style="fill:#fff;"/><rect id="p251" serif:id="p" x="293.016" y="189.777" width="17.207" height="17.207" style="fill:#fff;"/><rect id="p252" serif:id="p" x="293.016" y="275.81" width="17.207" height="17.207" style="fill:#fff;"/><rect id="p253" serif:id="p" x="293.016" y="344.636" width="17.207" height="17.207" style="fill:#fff;"/><rect id="p254" serif:id="p" x="293.016" y="361.842" width="17.207" height="17.207" style="fill:#fff;"/><rect id="p255" serif:id="p" x="293.016" y="413.462" width="17.207" height="17.207" style="fill:#fff;"/><rect id="p256" serif:id="p" x="293.016" y="447.875" width="17.207" height="17.207" style="fill:#fff;"/><rect id="p257" serif:id="p" x="310.223" y="69.332" width="17.207" height="17.207" style="fill:#fff;"/><rect id="p258" serif:id="p" x="310.223" y="103.745" width="17.207" height="17.207" style="fill:#fff;"/><rect id="p259" serif:id="p" x="310.223" y="120.951" width="17.207" height="17.207" style="fill:#fff;"/><rect id="p260" serif:id="p" x="310.223" y="155.364" width="17.207" height="17.207" style="fill:#fff;"/><rect id="p261" serif:id="p" x="310.223" y="206.984" width="17.207" height="17.207" style="fill:#fff;"/><rect id="p262" serif:id="p" x="310.223" y="224.19" width="17.207" height="17.207" style="fill:#fff;"/><rect id="p263" serif:id="p" x="310.223" y="241.397" width="17.207" height="17.207" style="fill:#fff;"/><rect id="p264" serif:id="p" x="310.223" y="275.81" width="17.207" height="17.207" style="fill:#fff;"/><rect id="p265" serif:id="p" x="310.223" y="327.429" width="17.207" height="17.207" style="fill:#fff;"/><rect id="p266" serif:id="p" x="310.223" y="396.255" width="17.207" height="17.207" style="fill:#fff;"/><rect id="p267" serif:id="p" x="310.223" y="430.668" width="17.207" height="17.207" style="fill:#fff;"/><rect id="p268" serif:id="p" x="310.223" y="447.875" width="17.207" height="17.207" style="fill:#fff;"/><rect id="p269" serif:id="p" x="310.223" y="465.081" width="17.207" height="17.207" style="fill:#fff;"/><rect id="p270" serif:id="p" x="327.429" y="0.505" width="17.207" height="17.207" style="fill:#fff;"/><rect id="p271" serif:id="p" x="327.429" y="17.712" width="17.207" height="17.207" style="fill:#fff;"/><rect id="p272" serif:id="p" x="327.429" y="34.919" width="17.207" height="17.207" style="fill:#fff;"/><rect id="p273" serif:id="p" x="327.429" y="69.332" width="17.207" height="17.207" style="fill:#fff;"/><rect id="p274" serif:id="p" x="327.429" y="120.951" width="17.207" height="17.207" style="fill:#fff;"/><rect id="p275" serif:id="p" x="327.429" y="172.571" width="17.207" height="17.207" style="fill:#fff;"/><rect id="p276" serif:id="p" x="327.429" y="189.777" width="17.207" height="17.207" style="fill:#fff;"/><rect id="p277" serif:id="p" x="327.429" y="241.397" width="17.207" height="17.207" style="fill:#fff;"/><rect id="p278" serif:id="p" x="327.429" y="310.223" width="17.207" height="17.207" style="fill:#fff;"/><rect id="p279" serif:id="p" x="327.429" y="361.842" width="17.207" height="17.207" style="fill:#fff;"/><rect id="p280" serif:id="p" x="327.429" y="379.049" width="17.207" height="17.207" style="fill:#fff;"/><rect id="p281" serif:id="p" x="327.429" y="396.255" width="17.207" height="17.207" style="fill:#fff;"/><rect id="p282" serif:id="p" x="327.429" y="413.462" width="17.207" height="17.207" style="fill:#fff;"/><rect id="p283" serif:id="p" x="344.636" y="0.505" width="17.207" height="17.207" style="fill:#fff;"/><rect id="p284" serif:id="p" x="344.636" y="52.125" width="17.207" height="17.207" style="fill:#fff;"/><rect id="p285" serif:id="p" x="344.636" y="103.745" width="17.207" height="17.207" style="fill:#fff;"/><rect id="p286" serif:id="p" x="344.636" y="120.951" width="17.207" height="17.207" style="fill:#fff;"/><rect id="p287" serif:id="p" x="344.636" y="172.571" width="17.207" height="17.207" style="fill:#fff;"/><rect id="p288" serif:id="p" x="344.636" y="189.777" width="17.207" height="17.207" style="fill:#fff;"/><rect id="p289" serif:id="p" x="344.636" y="206.984" width="17.207" height="17.207" style="fill:#fff;"/><rect id="p290" serif:id="p" x="344.636" y="275.81" width="17.207" height="17.207" style="fill:#fff;"/><rect id="p291" serif:id="p" x="344.636" y="344.636" width="17.207" height="17.207" style="fill:#fff;"/><rect id="p292" serif:id="p" x="344.636" y="361.842" width="17.207" height="17.207" style="fill:#fff;"/><rect id="p293" serif:id="p" x="344.636" y="379.049" width="17.207" height="17.207" style="fill:#fff;"/><rect id="p294" serif:id="p" x="344.636" y="396.255" width="17.207" height="17.207" style="fill:#fff;"/><rect id="p295" serif:id="p" x="344.636" y="413.462" width="17.207" height="17.207" style="fill:#fff;"/><rect id="p296" serif:id="p" x="344.636" y="447.875" width="17.207" height="17.207" style="fill:#fff;"/><rect id="p297" serif:id="p" x="344.636" y="482.288" width="17.207" height="17.207" style="fill:#fff;"/><rect id="p298" serif:id="p" x="361.842" y="138.158" width="17.207" height="17.207" style="fill:#fff;"/><rect id="p299" serif:id="p" x="361.842" y="155.364" width="17.207" height="17.207" style="fill:#fff;"/><rect id="p300" serif:id="p" x="361.842" y="172.571" width="17.207" height="17.207" style="fill:#fff;"/><rect id="p301" serif:id="p" x="361.842" y="206.984" width="17.207" height="17.207" style="fill:#fff;"/><rect id="p302" serif:id="p" x="361.842" y="241.397" width="17.207" height="17.207" style="fill:#fff;"/><rect id="p303" serif:id="p" x="361.842" y="327.429" width="17.207" height="17.207" style="fill:#fff;"/><rect id="p304" serif:id="p" x="361.842" y="344.636" width="17.207" height="17.207" style="fill:#fff;"/><rect id="p305" serif:id="p" x="361.842" y="413.462" width="17.207" height="17.207" style="fill:#fff;"/><rect id="p306" serif:id="p" x="361.842" y="447.875" width="17.207" height="17.207" style="fill:#fff;"/><rect id="p307" serif:id="p" x="361.842" y="465.081" width="17.207" height="17.207" style="fill:#fff;"/><rect id="p308" serif:id="p" x="379.049" y="0.505" width="17.207" height="17.207" style="fill:#fff;"/><rect id="p309" serif:id="p" x="379.049" y="17.712" width="17.207" height="17.207" style="fill:#fff;"/><rect id="p310" serif:id="p" x="379.049" y="34.919" width="17.207" height="17.207" style="fill:#fff;"/><rect id="p311" serif:id="p" x="379.049" y="52.125" width="17.207" height="17.207" style="fill:#fff;"/><rect id="p312" serif:id="p" x="379.049" y="69.332" width="17.207" height="17.207" style="fill:#fff;"/><rect id="p313" serif:id="p" x="379.049" y="86.538" width="17.207" height="17.207" style="fill:#fff;"/><rect id="p314" serif:id="p" x="379.049" y="103.745" width="17.207" height="17.207" style="fill:#fff;"/><rect id="p315" serif:id="p" x="379.049" y="138.158" width="17.207" height="17.207" style="fill:#fff;"/><rect id="p316" serif:id="p" x="379.049" y="172.571" width="17.207" height="17.207" style="fill:#fff;"/><rect id="p317" serif:id="p" x="379.049" y="206.984" width="17.207" height="17.207" style="fill:#fff;"/><rect id="p318" serif:id="p" x="379.049" y="224.19" width="17.207" height="17.207" style="fill:#fff;"/><rect id="p319" serif:id="p" x="379.049" y="241.397" width="17.207" height="17.207" style="fill:#fff;"/><rect id="p320" serif:id="p" x="379.049" y="327.429" width="17.207" height="17.207" style="fill:#fff;"/><rect id="p321" serif:id="p" x="379.049" y="344.636" width="17.207" height="17.207" style="fill:#fff;"/><rect id="p322" serif:id="p" x="379.049" y="379.049" width="17.207" height="17.207" style="fill:#fff;"/><rect id="p323" serif:id="p" x="379.049" y="413.462" width="17.207" height="17.207" style="fill:#fff;"/><rect id="p324" serif:id="p" x="379.049" y="465.081" width="17.207" height="17.207" style="fill:#fff;"/><rect id="p325" serif:id="p" x="379.049" y="482.288" width="17.207" height="17.207" style="fill:#fff;"/><rect id="p326" serif:id="p" x="396.255" y="0.505" width="17.207" height="17.207" style="fill:#fff;"/><rect id="p327" serif:id="p" x="396.255" y="103.745" width="17.207" height="17.207" style="fill:#fff;"/><rect id="p328" serif:id="p" x="396.255" y="155.364" width="17.207" height="17.207" style="fill:#fff;"/><rect id="p329" serif:id="p" x="396.255" y="241.397" width="17.207" height="17.207" style="fill:#fff;"/><rect id="p330" serif:id="p" x="396.255" y="275.81" width="17.207" height="17.207" style="fill:#fff;"/><rect id="p331" serif:id="p" x="396.255" y="310.223" width="17.207" height="17.207" style="fill:#fff;"/><rect id="p332" serif:id="p" x="396.255" y="327.429" width="17.207" height="17.207" style="fill:#fff;"/><rect id="p333" serif:id="p" x="396.255" y="344.636" width="17.207" height="17.207" style="fill:#fff;"/><rect id="p334" serif:id="p" x="396.255" y="413.462" width="17.207" height="17.207" style="fill:#fff;"/><rect id="p335" serif:id="p" x="396.255" y="430.668" width="17.207" height="17.207" style="fill:#fff;"/><rect id="p336" serif:id="p" x="396.255" y="447.875" width="17.207" height="17.207" style="fill:#fff;"/><rect id="p337" serif:id="p" x="396.255" y="482.288" width="17.207" height="17.207" style="fill:#fff;"/><rect id="p338" serif:id="p" x="413.462" y="0.505" width="17.207" height="17.207" style="fill:#fff;"/><rect id="p339" serif:id="p" x="413.462" y="34.919" width="17.207" height="17.207" style="fill:#fff;"/><rect id="p340" serif:id="p" x="413.462" y="52.125" width="17.207" height="17.207" style="fill:#fff;"/><rect id="p341" serif:id="p" x="413.462" y="69.332" width="17.207" height="17.207" style="fill:#fff;"/><rect id="p342" serif:id="p" x="413.462" y="103.745" width="17.207" height="17.207" style="fill:#fff;"/><rect id="p343" serif:id="p" x="413.462" y="138.158" width="17.207" height="17.207" style="fill:#fff;"/><rect id="p344" serif:id="p" x="413.462" y="155.364" width="17.207" height="17.207" style="fill:#fff;"/><rect id="p345" serif:id="p" x="413.462" y="224.19" width="17.207" height="17.207" style="fill:#fff;"/><rect id="p346" serif:id="p" x="413.462" y="258.603" width="17.207" height="17.207" style="fill:#fff;"/><rect id="p347" serif:id="p" x="413.462" y="293.016" width="17.207" height="17.207" style="fill:#fff;"/><rect id="p348" serif:id="p" x="413.462" y="344.636" width="17.207" height="17.207" style="fill:#fff;"/><rect id="p349" serif:id="p" x="413.462" y="361.842" width="17.207" height="17.207" style="fill:#fff;"/><rect id="p350" serif:id="p" x="413.462" y="379.049" width="17.207" height="17.207" style="fill:#fff;"/><rect id="p351" serif:id="p" x="413.462" y="396.255" width="17.207" height="17.207" style="fill:#fff;"/><rect id="p352" serif:id="p" x="413.462" y="413.462" width="17.207" height="17.207" style="fill:#fff;"/><rect id="p353" serif:id="p" x="413.462" y="447.875" width="17.207" height="17.207" style="fill:#fff;"/><rect id="p354" serif:id="p" x="413.462" y="465.081" width="17.207" height="17.207" style="fill:#fff;"/><rect id="p355" serif:id="p" x="413.462" y="482.288" width="17.207" height="17.207" style="fill:#fff;"/><rect id="p356" serif:id="p" x="430.668" y="0.505" width="17.207" height="17.207" style="fill:#fff;"/><rect id="p357" serif:id="p" x="430.668" y="34.919" width="17.207" height="17.207" style="fill:#fff;"/><rect id="p358" serif:id="p" x="430.668" y="52.125" width="17.207" height="17.207" style="fill:#fff;"/><rect id="p359" serif:id="p" x="430.668" y="69.332" width="17.207" height="17.207" style="fill:#fff;"/><rect id="p360" serif:id="p" x="430.668" y="103.745" width="17.207" height="17.207" style="fill:#fff;"/><rect id="p361" serif:id="p" x="430.668" y="138.158" width="17.207" height="17.207" style="fill:#fff;"/><rect id="p362" serif:id="p" x="430.668" y="172.571" width="17.207" height="17.207" style="fill:#fff;"/><rect id="p363" serif:id="p" x="430.668" y="189.777" width="17.207" height="17.207" style="fill:#fff;"/><rect id="p364" serif:id="p" x="430.668" y="206.984" width="17.207" height="17.207" style="fill:#fff;"/><rect id="p365" serif:id="p" x="430.668" y="241.397" width="17.207" height="17.207" style="fill:#fff;"/><rect id="p366" serif:id="p" x="430.668" y="258.603" width="17.207" height="17.207" style="fill:#fff;"/><rect id="p367" serif:id="p" x="430.668" y="275.81" width="17.207" height="17.207" style="fill:#fff;"/><rect id="p368" serif:id="p" x="430.668" y="293.016" width="17.207" height="17.207" style="fill:#fff;"/><rect id="p369" serif:id="p" x="430.668" y="361.842" width="17.207" height="17.207" style="fill:#fff;"/><rect id="p370" serif:id="p" x="430.668" y="396.255" width="17.207" height="17.207" style="fill:#fff;"/><rect id="p371" serif:id="p" x="430.668" y="430.668" width="17.207" height="17.207" style="fill:#fff;"/><rect id="p372" serif:id="p" x="430.668" y="447.875" width="17.207" height="17.207" style="fill:#fff;"/><rect id="p373" serif:id="p" x="447.875" y="0.505" width="17.207" height="17.207" style="fill:#fff;"/><rect id="p374" serif:id="p" x="447.875" y="34.919" width="17.207" height="17.207" style="fill:#fff;"/><rect id="p375" serif:id="p" x="447.875" y="52.125" width="17.207" height="17.207" style="fill:#fff;"/><rect id="p376" serif:id="p" x="447.875" y="69.332" width="17.207" height="17.207" style="fill:#fff;"/><rect id="p377" serif:id="p" x="447.875" y="103.745" width="17.207" height="17.207" style="fill:#fff;"/><rect id="p378" serif:id="p" x="447.875" y="172.571" width="17.207" height="17.207" style="fill:#fff;"/><rect id="p379" serif:id="p" x="447.875" y="224.19" width="17.207" height="17.207" style="fill:#fff;"/><rect id="p380" serif:id="p" x="447.875" y="258.603" width="17.207" height="17.207" style="fill:#fff;"/><rect id="p381" serif:id="p" x="447.875" y="310.223" width="17.207" height="17.207" style="fill:#fff;"/><rect id="p382" serif:id="p" x="447.875" y="327.429" width="17.207" height="17.207" style="fill:#fff;"/><rect id="p383" serif:id="p" x="447.875" y="344.636" width="17.207" height="17.207" style="fill:#fff;"/><rect id="p384" serif:id="p" x="447.875" y="361.842" width="17.207" height="17.207" style="fill:#fff;"/><rect id="p385" serif:id="p" x="447.875" y="379.049" width="17.207" height="17.207" style="fill:#fff;"/><rect id="p386" serif:id="p" x="447.875" y="430.668" width="17.207" height="17.207" style="fill:#fff;"/><rect id="p387" serif:id="p" x="447.875" y="447.875" width="17.207" height="17.207" style="fill:#fff;"/><rect id="p388" serif:id="p" x="447.875" y="465.081" width="17.207" height="17.207" style="fill:#fff;"/><rect id="p389" serif:id="p" x="465.081" y="0.505" width="17.207" height="17.207" style="fill:#fff;"/><rect id="p390" serif:id="p" x="465.081" y="103.745" width="17.207" height="17.207" style="fill:#fff;"/><rect id="p391" serif:id="p" x="465.081" y="138.158" width="17.207" height="17.207" style="fill:#fff;"/><rect id="p392" serif:id="p" x="465.081" y="155.364" width="17.207" height="17.207" style="fill:#fff;"/><rect id="p393" serif:id="p" x="465.081" y="206.984" width="17.207" height="17.207" style="fill:#fff;"/><rect id="p394" serif:id="p" x="465.081" y="275.81" width="17.207" height="17.207" style="fill:#fff;"/><rect id="p395" serif:id="p" x="465.081" y="327.429" width="17.207" height="17.207" style="fill:#fff;"/><rect id="p396" serif:id="p" x="465.081" y="344.636" width="17.207" height="17.207" style="fill:#fff;"/><rect id="p397" serif:id="p" x="465.081" y="396.255" width="17.207" height="17.207" style="fill:#fff;"/><rect id="p398" serif:id="p" x="465.081" y="413.462" width="17.207" height="17.207" style="fill:#fff;"/><rect id="p399" serif:id="p" x="465.081" y="430.668" width="17.207" height="17.207" style="fill:#fff;"/><rect id="p400" serif:id="p" x="465.081" y="447.875" width="17.207" height="17.207" style="fill:#fff;"/><rect id="p401" serif:id="p" x="482.288" y="0.505" width="17.207" height="17.207" style="fill:#fff;"/><rect id="p402" serif:id="p" x="482.288" y="17.712" width="17.207" height="17.207" style="fill:#fff;"/><rect id="p403" serif:id="p" x="482.288" y="34.919" width="17.207" height="17.207" style="fill:#fff;"/><rect id="p404" serif:id="p" x="482.288" y="52.125" width="17.207" height="17.207" style="fill:#fff;"/><rect id="p405" serif:id="p" x="482.288" y="69.332" width="17.207" height="17.207" style="fill:#fff;"/><rect id="p406" serif:id="p" x="482.288" y="86.538" width="17.207" height="17.207" style="fill:#fff;"/><rect id="p407" serif:id="p" x="482.288" y="103.745" width="17.207" height="17.207" style="fill:#fff;"/><rect id="p408" serif:id="p" x="482.288" y="189.777" width="17.207" height="17.207" style="fill:#fff;"/><rect id="p409" serif:id="p" x="482.288" y="224.19" width="17.207" height="17.207" style="fill:#fff;"/><rect id="p410" serif:id="p" x="482.288" y="241.397" width="17.207" height="17.207" style="fill:#fff;"/><rect id="p411" serif:id="p" x="482.288" y="258.603" width="17.207" height="17.207" style="fill:#fff;"/><rect id="p412" serif:id="p" x="482.288" y="275.81" width="17.207" height="17.207" style="fill:#fff;"/><rect id="p413" serif:id="p" x="482.288" y="310.223" width="17.207" height="17.207" style="fill:#fff;"/><rect id="p414" serif:id="p" x="482.288" y="413.462" width="17.207" height="17.207" style="fill:#fff;"/><rect id="p415" serif:id="p" x="482.288" y="447.875" width="17.207" height="17.207" style="fill:#fff;"/><rect id="p416" serif:id="p" x="482.288" y="465.081" width="17.207" height="17.207" style="fill:#fff;"/></g><g id="qr-site.svg"></g></svg>