<svg xmlns="http://www.w3.org/2000/svg" viewBox="0 0 360.627 120.231">
  <path d="M161.658 72.556a3.024 3.024 0 0 0-.094-.269 6.773 6.773 0 0 0-.089-.282c-1.881-5.51-9.885-5.257-14.311-1.618-2.112 1.706-4.027 4.073-5.368 6.402a20.62 20.62 0 0 0-.832 1.598c-.6 1.3-1 2.6-1.1 3.8-.12.905-.023 1.772.293 2.604a6.268 6.268 0 0 0 .907 1.596 48.814 48.814 0 0 0 .226.225 5.188 5.188 0 0 0 1.774 1.275c2.2 1 5.9-2.1 9.5-5.5a9.954 9.954 0 0 0-.002.203c0 4.208 2.737 5.725 6.528 4.351a12.132 12.132 0 0 0 1.474-.654c1.032-.535 2.238-1.376 3.704-2.541a95.633 95.633 0 0 0 .586-.473l-1.99 3.214c-.24.401-.031 1.188.526 1.897a3.896 3.896 0 0 0 .474.503 3.809 3.809 0 0 0 .238.219c.525.442 1.095.673 1.482.617a.504.504 0 0 0 .38-.236c.468-.842 5.05-8.599 5.802-9.677a.607.607 0 0 1 .098-.123 21.683 21.683 0 0 1 .09-.079c.938-.822 8.899-7.714 10.31-6.021 1.871 2.212 2.73 3.049 4.545 3.372a10.696 10.696 0 0 0 1.055.128 5.27 5.27 0 0 0 .215.016c2.067.112 6.242-.734 9.065-1.559a32.846 32.846 0 0 0 .52-.157 2.169 2.169 0 0 0 .085-.016c.119-.024.229-.059.32-.107a.451.451 0 0 0 .027-.014 19.904 19.904 0 0 0-1.632 4.037c-1.1 3.8-.5 7.5 1.5 11a20.478 20.478 0 0 0 1.744 2.699c1.629 2.144 3.738 4.116 6.238 5.884a44.397 44.397 0 0 0 8.218 4.517 61.367 61.367 0 0 0 10.023 3.133 75.241 75.241 0 0 0 14.777 1.767 76.255 76.255 0 0 0 1.378.013c16.25 0 34.33-5.182 48.722-18.213 8.138-7.262 13.442-15.597 16.048-23.931a43.223 43.223 0 0 0 .952-3.569c1.8-8.2 1-16.5-2.3-23.9a40.778 40.778 0 0 0-7.54-11.224 48.434 48.434 0 0 0-10.86-8.576 57.043 57.043 0 0 0-8.277-3.901c-10.043-3.808-22.584-5.601-37.623-4.599a105.07 105.07 0 0 0-14.666 2.035c-41.558 8.866-55.667 40.333-57.357 44.344a19.881 19.881 0 0 1-.177.421.786.786 0 0 0-.023.086c-.13.615.365 1.646 1.223 2.314a3.832 3.832 0 0 0 .321.257c.509.363.991.5 1.315.432a.475.475 0 0 0 .364-.289c.1-.2 15.8-42.3 71.1-46.1 19-1.3 33.7 1.9 44.1 7.9a42.102 42.102 0 0 1 8.057 6.091 32.666 32.666 0 0 1 7.143 10.109 33.709 33.709 0 0 1 2.908 13.832 37.877 37.877 0 0 1-.908 8.168 42.019 42.019 0 0 1-.545 2.148c-2.422 8.591-7.755 17.183-16.155 24.752a67.41 67.41 0 0 1-8.812 6.739c-12.322 7.906-26.225 11.174-39.01 11.174a74.886 74.886 0 0 1-1.378-.013 69.58 69.58 0 0 1-.449-.006c-4.635-.082-9.076-.624-13.193-1.512a60.146 60.146 0 0 1-10.058-3.082 40.632 40.632 0 0 1-5.398-2.764c-1.61-.994-3.022-2.055-4.205-3.166a15.143 15.143 0 0 1-2.997-3.77 10.603 10.603 0 0 1-1.476-5.344c0-1.033.156-2.088.476-3.156 1.7-6 5.9-10.2 11.3-12.7a24.174 24.174 0 0 1 3.395-1.285 34.644 34.644 0 0 1 8.205-1.315 36.285 36.285 0 0 1 1.719-.043c3.574-.004 7.265.51 10.881 1.543 1.4.4 2.8.9 4.2 1.5a268.812 268.812 0 0 0-2.106 2.91c-8.236 11.543-14.955 23.087-6.194 19.49a.527.527 0 0 0 .333-.301c.162-.385-.049-1.042-.633-1.699-.578-.825-1.36-1.378-1.953-1.377a.77.77 0 0 0-.347.077s7.3-8.9 14.3-17.5c5.6 3 10.2 7.4 12.9 13.1.346.777 1.138 1.554 1.863 1.881a2.019 2.019 0 0 0 .337.119 1.366 1.366 0 0 0 .005.001c.796.197 1.094-.502.595-1.401-3-6.7-8.1-11.9-14.1-15.6l11.5-14a.551.551 0 0 0 .091-.199c.092-.371-.075-.964-.441-1.535a3.934 3.934 0 0 0-.35-.466 4.36 4.36 0 0 0-.353-.354c-.588-.526-1.225-.794-1.673-.737a.701.701 0 0 0-.274.091l-7.3 5.5a.479.479 0 0 0-.207.258c-.157.439.147 1.222.707 1.942a.601.601 0 0 1 .103.066c.104.081.176.187.24.269a.771.771 0 0 0 .057.065c-1.7 2.2-3.6 4.6-5.5 7.3-2.4-1.2-4.8-2.1-7.2-2.8-3.841-1.047-7.834-1.638-11.648-1.638a35.566 35.566 0 0 0-1.652.038 38.411 38.411 0 0 0-4.054.396 29.541 29.541 0 0 0-8.146 2.404 23.615 23.615 0 0 0-6.033 3.972 19.904 19.904 0 0 0-3.896 4.861.665.665 0 0 0-.007-.07c-.022-.15-.094-.335-.232-.562a3.737 3.737 0 0 0-.132-.201 2.034 2.034 0 0 0-.073-.102c-.469-.618-.939-.42-1.409-.222a4.463 4.463 0 0 1-.318.124c-2.7.8-5.5 1.2-7.4 1.1a.883.883 0 0 1-.558-.243c-.521-.491-.596-1.621-.947-2.488a2.252 2.252 0 0 0-.395-.669 3.224 3.224 0 0 0-1.485-1.033c-1.619-.568-3.839-.138-5.979.628a28.736 28.736 0 0 0-2.836 1.205l3.7-5.9c.241-.401.031-1.188-.526-1.896a3.896 3.896 0 0 0-.474-.504 3.809 3.809 0 0 0-.238-.219c-.525-.442-1.094-.673-1.482-.617a.504.504 0 0 0-.38.236l-6.793 10.975a348.577 348.577 0 0 1-.033.026c-3.204 2.58-12.143 9.683-12.474 7.699a7.308 7.308 0 0 1-.091-.514c-.361-2.567.678-4.861.884-5.368a3.647 3.647 0 0 0 .007-.018c.251-.419.012-1.118-.484-1.804a5.451 5.451 0 0 0-.316-.396c-.9-.9-1.8-1.2-2.2-.8a34.226 34.226 0 0 1-.086.1c-.934 1.079-9.214 10.557-12.514 11.5 1.1-4.6 3.2-8.2 6.9-11.2 1.444-1.203 4.883-2.921 7.219-2.573a2.667 2.667 0 0 1 1.481.673c.346.777 1.138 1.554 1.863 1.881a2.019 2.019 0 0 0 .337.119 1.537 1.537 0 0 0 .01.003c.718.174 1.029-.302.784-1.134ZM3.309 45.121a.499.499 0 0 0 .155-.234 20.278 20.278 0 0 1 .186-.385c4.746-9.577 18.105-17.789 30.905-21.771a63.12 63.12 0 0 1 6.909-1.744c3.427-.653 10.715-1.505 15.02.159a6.042 6.042 0 0 1 2.38 1.541 3.778 3.778 0 0 1 .433.615c.754 1.332.88 3.339.218 6.142a25.031 25.031 0 0 1-.451 1.643 191.461 191.461 0 0 1-.828 2.501c-2.022 5.976-4.647 12.899-7.272 19.899a6163.462 6163.462 0 0 0-1.144 3.059c-6.645 17.781-13.291 36.092-12.156 43.941a15.634 15.634 0 0 0 .153.936c.709 3.621 2.57 5.56 5.908 5.425a9.154 9.154 0 0 0 .739-.061 13.013 13.013 0 0 1 .154-.037c.37-.088.796-.175 1.146-.263 5.82-1.887 18.753-11.383 31.21-24.789a158.64 158.64 0 0 0 9.89-11.711 134.924 134.924 0 0 0 16.858-28.612c4.07-9.606 6.505-19.212 6.505-27.894a41.778 41.778 0 0 0-.363-5.594c-.3-1.9-.7-3.7-1.3-5.6a2.611 2.611 0 0 0-.099-.252c-.322-.708-.976-1.387-1.619-1.789a3.391 3.391 0 0 0-.282-.159 2.015 2.015 0 0 0-.094-.029c-.773-.216-1.22.187-1.061.929a1.884 1.884 0 0 0 .055.2c.5 1.6.9 3.2 1.1 4.9a35.105 35.105 0 0 1 .305 4.692c0 9.14-3.24 19.365-8.318 29.589a161.864 161.864 0 0 1-16.387 25.819c-12.131 15.954-25.919 29.214-34.423 34.62a21.195 21.195 0 0 1-4.477 2.28 27.303 27.303 0 0 1-.301.074c-.165.04-.326.074-.475.097a2.158 2.158 0 0 1-.324.029 2.545 2.545 0 0 1-.126.013c-.573.043-.921-.147-1.085-.613a1.925 1.925 0 0 1-.089-.4 9.746 9.746 0 0 1-.036-.317c-.765-7.916 6.529-27.432 13.336-45.683 3-8.1 5.9-15.9 8.1-22.5a21.573 21.573 0 0 0 .122-.393c.676-2.253.875-4.285.669-6.104a10.678 10.678 0 0 0-2.591-5.903c-5.1-5.8-15.3-6.8-22.2-5.5a51.267 51.267 0 0 0-1.609.341C26.256 18.6 14.737 24.52 7.076 31.859a32.069 32.069 0 0 0-7.012 9.328.578.578 0 0 0-.049.157c-.107.594.379 1.835 1.017 2.669a3.408 3.408 0 0 0 .432.474 4.437 4.437 0 0 0 .335.271c.631.459 1.217.604 1.51.363Zm100.954 20.915a.727.727 0 0 0-.399.151 16.115 16.115 0 0 0-.832.743c-2.103 2-4.918 5.517-6.874 9.034a30.23 30.23 0 0 0-.494.923 23.524 23.524 0 0 0-.214.44c-.975 2.057-1.567 4.099-1.532 5.928a6.169 6.169 0 0 0 .746 2.932 4.297 4.297 0 0 0 .359.533c2.756 3.478 9.138-.696 14.082-4.869a71.087 71.087 0 0 0 .081-.068 8.216 8.216 0 0 0-.122.904c-.217 4.121 2.702 5.001 5.62 4.38a10.25 10.25 0 0 0 3.18-1.28 49.268 49.268 0 0 0 2.574-1.779c1.991-1.463 4.265-3.302 6.726-5.421l.1-.2a2.235 2.235 0 0 0 .281.137c.418.166.775.141.972-.052a.538.538 0 0 0 .147-.285.267.267 0 0 1 .001-.022c.011-.128.099-.521.099-1.178a80.351 80.351 0 0 0 2.85-2.687 126.625 126.625 0 0 0 2.85-2.913c-12.36 20.375-25.186 42.335-24.973 46.341a1.059 1.059 0 0 0 .073.359 3.127 3.127 0 0 0 .68 1.161c.424.471.956.823 1.42.939a1.755 1.755 0 0 0 .006.002c.731.18 1.126-.227.876-1.067a2.706 2.706 0 0 0-.082-.235c-1.291-3.043 30.161-53.032 42.748-72.87a3900.88 3900.88 0 0 1 2.752-4.33c1.6-2.4 2.4-3.7 2.4-3.7a.773.773 0 0 0 .036-.084c.164-.454-.071-1.099-.519-1.715a5.123 5.123 0 0 0-.517-.601c-.616-.616-1.232-.904-1.656-.864a.552.552 0 0 0-.444.264l-2.1 3.2c-2.025 3.15-5.681 8.494-10.842 15.103a266.591 266.591 0 0 1-5.658 6.997c-3.6 4.3-7.4 8.4-11.1 11.9a196.253 196.253 0 0 1-.146-.219c-.951-1.431-2.177-3.184-5.676-3.184a10.85 10.85 0 0 0-.278.003c-3.761-.179-7.603 4.214-9.801 7.503a29.583 29.583 0 0 0-.032.048 81.148 81.148 0 0 1-.071.065c-3.295 3.005-9.62 8.308-12.748 8.308a2.4 2.4 0 0 1-.348-.024 1.254 1.254 0 0 1-.279-.189c-.633-.57-.677-1.821.158-3.8a15.566 15.566 0 0 1 .421-.911c1.856-3.544 4.709-7.158 6.877-9.343a20.338 20.338 0 0 1 1.123-1.057c.447-.357.255-1.192-.36-2.008a4.721 4.721 0 0 0-.24-.292 4.309 4.309 0 0 0-.353-.354c-.535-.477-1.111-.735-1.548-.697Zm216.301 8.951c-4.699 2.4-9.997 3-10.3 3-6.319 13.569 16.554 3.818 22.306-2.123a7.032 7.032 0 0 0 .549-.622l-.155-.155c-.8-.9-1-1.9-.6-2.2l5.3-5.2a.32.32 0 0 1 .152-.08c.584-.147 2.125.666 2.848 1.48a4.474 4.474 0 0 1 .244.304c.445.608.654 1.231.543 1.618a.544.544 0 0 1-.087.178 3.836 3.836 0 0 0-.123.164c-.867 1.185-6.05 8.503-8.249 13.168a20.118 20.118 0 0 0-.428.968c-.6 1.4.8 1 1.8 0a37.929 37.929 0 0 0 3.052-2.476c2.569-2.288 5.468-5.31 8.368-8.691a134.909 134.909 0 0 0 5.48-6.833l.6-.9a1.133 1.133 0 0 1 .205-.203c.35-.26.785-.16 1.406.505a5.392 5.392 0 0 1 .089.098 3.584 3.584 0 0 1 .136.127c.783.774 1.586 2.205 1.437 2.742a.292.292 0 0 1-.073.131c0 .1-4 5.2-4 7.3a.014.014 0 0 0 .014.009c.237.05 3.408-.508 6.486-3.009a1.663 1.663 0 0 0 .006-.004c.405-.307 1.598-1.492 2.394-.596.469.527.663.952.663 1.293a.835.835 0 0 1-.263.607 6.913 6.913 0 0 1-.058.051c-.805.686-9.679 8.066-12.542 2.149l-.1-.2c-2.739 2.961-5.423 5.539-7.809 7.489a37.083 37.083 0 0 1-2.391 1.811 33.984 33.984 0 0 1-1.344.941c-.824.544-1.563.968-2.196 1.249a7.453 7.453 0 0 1-.26.11 4.941 4.941 0 0 1-.984.206c-.933.092-1.815-.128-2.602-.726a4.652 4.652 0 0 1-.714-.68 4.523 4.523 0 0 1-.553-.817 3.363 3.363 0 0 1-.347-1.083c-.131-.579-.048-1.324.193-2.18a15.357 15.357 0 0 1 .437-1.274 45.654 45.654 0 0 1-2.155 1.41c-4.943 3.043-10.714 5.294-14.641 4.193a5.986 5.986 0 0 1-1.334-.549c-3.245-1.813-5.306-5.54-4.791-9.268a8.311 8.311 0 0 1 .091-.532 11.625 11.625 0 0 1 .532-1.828c.433-1.144 1.046-2.289 1.793-3.397a22.473 22.473 0 0 1 1.675-2.175c2-2.2 4.3-4.3 6.5-5.9 2.854-1.968 5.514-3.161 6.647-3.008a1.197 1.197 0 0 1 .053.008 4.186 4.186 0 0 1 1.821.926 5.545 5.545 0 0 1 .579.574 5.157 5.157 0 0 1 .781 1.118c.415.811.555 1.67.419 2.482a5.745 5.745 0 0 1-.383 1.45c-.159.408-.356.826-.573 1.263a38.707 38.707 0 0 1-.044.087c-.662 1.265-1.651 2.565-2.856 3.662a11.833 11.833 0 0 1-2.644 1.838Zm-196.3.4 1.1-1.1a2.825 2.825 0 0 0-.078-.236c-.238-.618-.744-1.237-1.849-1.263a3.094 3.094 0 0 0-.073-.001c-3.469-.192-7.309 4.35-9.105 7.186a19.602 19.602 0 0 0-.195.314 24.116 24.116 0 0 0-.805 1.522c-.389.811-.67 1.553-.795 2.178.6-.3 1.5-.8 2.6-1.5a36.963 36.963 0 0 0 2.537-1.687c1.992-1.434 4.257-3.282 6.663-5.413Zm-17.2-15.2 5.6-6.4a.593.593 0 0 1 .488-.22c.379 0 .874.248 1.389.65a6.6 6.6 0 0 1 .323.27c.704.792 1.021 1.662.882 2.2a.753.753 0 0 1-.082.2l-5.6 6.4c-.4.5-1.4.1-2.2-.7-.711-.8-1.106-1.679-.904-2.216a.672.672 0 0 1 .104-.184Zm206.4 13.2a26.313 26.313 0 0 0 2.175-.737 54.632 54.632 0 0 0 2.325-.963c2.078-1.088 3.863-3.156 4.966-5.04a14.373 14.373 0 0 0 .034-.06c.2-.4.3-.7.5-1.1a14.985 14.985 0 0 0-1.263.656c-.399.229-.818.489-1.257.78a35.049 35.049 0 0 0-1.38.964 58.285 58.285 0 0 0-1.593 1.237c-.246.198-.494.401-.741.609a32.462 32.462 0 0 0-3.766 3.654Z" vector-effect="non-scaling-stroke" stroke-linecap="round" fill-rule="evenodd" font-size="16" stroke="#263137" fill="#263137" stroke-width=".25mm"/>
</svg>
