<svg xmlns="http://www.w3.org/2000/svg" viewBox="0 0 420.409 98.34">
  <path d="M290.237 53.155a.727.727 0 0 0-.399.152 16.115 16.115 0 0 0-.832.742c-2.103 2-4.918 5.517-6.874 9.034a30.23 30.23 0 0 0-.494.924 23.524 23.524 0 0 0-.214.44c-.975 2.056-1.567 4.099-1.531 5.927a6.169 6.169 0 0 0 .745 2.933 4.297 4.297 0 0 0 .359.533c2.756 3.477 9.138-.696 14.082-4.869a71.087 71.087 0 0 0 .065-.055 9.331 9.331 0 0 0-.006.191c-.1 2.2.8 4.4 3 6.4a4.426 4.426 0 0 0 1.608.912c4.606 1.495 12.756-3.175 18.861-7.408a113.577 113.577 0 0 0 .951-.668l-3.12 5.064c-.24.401-.031 1.188.526 1.896a3.896 3.896 0 0 0 .474.504 4.439 4.439 0 0 0 .13.124c.58.535 1.193.808 1.579.743a.442.442 0 0 0 .291-.167.302.302 0 0 0 .007-.007c.375-.41 15.996-17.971 16.293-15.493a18.621 18.621 0 0 1 .046.685c.098 2.033-.06 4.375.273 6.45a6.852 6.852 0 0 0 1.581 3.665 2.829 2.829 0 0 0 2.142.885c1.867 0 4.546-1.36 8.384-4.372a81.64 81.64 0 0 0 1.403-1.132 18.001 18.001 0 0 0-.086.302c-.267.998-.406 1.968-.388 2.884a6.169 6.169 0 0 0 .745 2.933 4.297 4.297 0 0 0 .359.533c2.918 3.682 9.904-1.215 14.941-5.606a83.433 83.433 0 0 0 .425-.374 9.498 9.498 0 0 0 4.775 6.947 5.986 5.986 0 0 0 1.335.548c3.926 1.101 9.697-1.149 14.64-4.192a45.654 45.654 0 0 0 .224-.139l-1.599 2.583c-.24.401-.031 1.188.526 1.896a3.896 3.896 0 0 0 .474.504 3.809 3.809 0 0 0 .239.219c.524.442 1.094.673 1.481.617a.504.504 0 0 0 .38-.236c.468-.842 5.05-8.599 5.802-9.677a.607.607 0 0 1 .098-.123 21.683 21.683 0 0 1 .09-.08c.938-.821 8.899-7.714 10.31-6.02 1.872 2.211 2.73 3.048 4.545 3.372a10.696 10.696 0 0 0 1.055.128 5.27 5.27 0 0 0 .216.016c2.066.111 6.241-.735 9.064-1.56a32.846 32.846 0 0 0 .52-.156 2.169 2.169 0 0 0 .085-.016c.51-.106.832-.386.347-1.183a3.737 3.737 0 0 0-.132-.201 2.034 2.034 0 0 0-.073-.103c-.469-.618-.939-.42-1.409-.222a4.463 4.463 0 0 1-.318.125c-2.7.8-5.5 1.2-7.4 1.1a.883.883 0 0 1-.558-.243c-.521-.491-.596-1.621-.946-2.488a2.252 2.252 0 0 0-.396-.669 3.224 3.224 0 0 0-1.485-1.034c-1.619-.568-3.839-.137-5.979.629a28.736 28.736 0 0 0-2.836 1.205l3.7-5.9c.241-.401.031-1.188-.526-1.897a3.896 3.896 0 0 0-.474-.503 3.809 3.809 0 0 0-.238-.219c-.525-.442-1.094-.673-1.482-.617a.504.504 0 0 0-.38.236l-8.305 13.416a15.241 15.241 0 0 1-.34.28c-7.295 5.907-26.857 13.576-20.955.904.303-.001 5.602-.601 10.3-3a11.833 11.833 0 0 0 2.644-1.839c1.206-1.096 2.194-2.397 2.856-3.661a38.707 38.707 0 0 0 .044-.088c.217-.437.414-.855.573-1.263a5.745 5.745 0 0 0 .383-1.449c.136-.813-.004-1.671-.419-2.482a5.157 5.157 0 0 0-.781-1.118 5.545 5.545 0 0 0-.579-.574 4.186 4.186 0 0 0-1.821-.926 1.197 1.197 0 0 0-.053-.009c-1.132-.153-3.793 1.041-6.647 3.009-2.2 1.6-4.5 3.7-6.5 5.9a22.473 22.473 0 0 0-1.674 2.174c-.748 1.109-1.361 2.253-1.794 3.397a11.625 11.625 0 0 0-.384 1.197 89.461 89.461 0 0 1-.472.415c-3.461 3.023-8.605 7.041-11.328 7.041a2.4 2.4 0 0 1-.348-.024 1.254 1.254 0 0 1-.279-.19c-.633-.569-.676-1.82.158-3.8a15.566 15.566 0 0 1 .421-.91c1.857-3.544 4.71-7.159 6.877-9.343a20.338 20.338 0 0 1 1.123-1.057c.447-.357.255-1.193-.36-2.008a4.721 4.721 0 0 0-.24-.292 4.309 4.309 0 0 0-.353-.354c-.535-.478-1.111-.736-1.548-.698a.727.727 0 0 0-.399.152 16.115 16.115 0 0 0-.832.742c-.953.907-2.052 2.124-3.151 3.512a42.096 42.096 0 0 0-2.564 3.591 4.503 4.503 0 0 1-.053.055 128.307 128.307 0 0 1-1 .922c-7.198 6.566-10.334 7.834-11.19 7.683a.333.333 0 0 1-.21-.105 211.196 211.196 0 0 0-.001-.094c-.012-.749-.094-5.783-.181-7.096a5.013 5.013 0 0 0-.018-.21 9.057 9.057 0 0 0-.182-1.189c-1.132-4.968-6.163-2.733-11.194 1.044a49.491 49.491 0 0 0-.324.245l21.9-35.5c.241-.401.031-1.188-.526-1.897a3.896 3.896 0 0 0-.474-.503 3.809 3.809 0 0 0-.238-.219c-.525-.442-1.094-.673-1.482-.617a.504.504 0 0 0-.38.236l-23.545 38.212a1177.079 1177.079 0 0 0-.439.315c-3.68 2.635-17.82 12.619-22.862 11.57a2.256 2.256 0 0 1-1.054-.497 1.84 1.84 0 0 1-.175-.204 2.522 2.522 0 0 1-.41-.926 4.633 4.633 0 0 1-.115-1.07 8.643 8.643 0 0 1 .136-.953c.188-.955.543-1.979 1.064-2.947a22.621 22.621 0 0 1 .554-.918 22.519 22.519 0 0 1 2.446-3.182 26.369 26.369 0 0 1 .649-.706c2.944-3.09 6.54-5.397 8.347-5.397a1.99 1.99 0 0 1 .104.003.052.052 0 0 1 .028.007c.273.166-1.069 3.137-1.299 3.464a.066.066 0 0 1-.029.029.562.562 0 0 0-.027.09c-.115.533.378 1.555 1.227 2.31a3.755 3.755 0 0 0 .13.123c.608.553 1.252.761 1.633.537a.61.61 0 0 0 .237-.26.766.766 0 0 0 .001-.002c.065-.135 3.922-8.22-2.295-9.605a8.826 8.826 0 0 0-1.606-.193c-2.3-.1-6.8 2.8-10.1 6.5a48.147 48.147 0 0 0-.878 1.051 20.808 20.808 0 0 0-2.22 3.246 89.461 89.461 0 0 1-.326.286c-3.461 3.023-8.605 7.041-11.328 7.041a2.4 2.4 0 0 1-.348-.024 1.254 1.254 0 0 1-.279-.19c-.633-.569-.676-1.82.158-3.8a15.566 15.566 0 0 1 .421-.91c1.857-3.544 4.71-7.159 6.877-9.343a20.338 20.338 0 0 1 1.123-1.057c.447-.357.255-1.193-.36-2.008a4.721 4.721 0 0 0-.24-.292 4.309 4.309 0 0 0-.353-.354c-.535-.478-1.111-.736-1.548-.698Zm-63.142 9.22a3.184 3.184 0 0 0 .243.432c0 .1 10.6 17.6 63.6 34.2.8.2 1.2-.3.8-1.2-.262-.875-1.061-1.674-1.792-2.061a2.656 2.656 0 0 0-.308-.139c-31.325-9.785-46.774-19.258-54.011-25.128a38.871 38.871 0 0 1-4.189-3.872c5.744.07 11.83-.633 17.659-2.224a40.279 40.279 0 0 0 25.941-18.776c5.2-10.1 2.8-22.1-4.7-30.8a27.262 27.262 0 0 0-6.361-5.308C243.271-5.244 200.611.111 176.684 9.858a63.105 63.105 0 0 0-9.546 4.749 41.04 41.04 0 0 0-11.564 10.775c-7.417 10.416-8.224 23.379 3.478 32.36a36.841 36.841 0 0 0 6.786 4.065c.842.374 1.334.048 1.23-.732a1.975 1.975 0 0 0-.03-.168 1.717 1.717 0 0 0-.001-.006c-.143-.562-.63-1.272-1.219-1.782a3.218 3.218 0 0 0-.78-.512 27.598 27.598 0 0 1-4.207-2.417c-14.963-10.578-2.06-28.707 10.842-37.086a42.883 42.883 0 0 1 .465-.297 59.653 59.653 0 0 1 6.476-3.448c24.338-11.27 74.206-19.534 90.024-1.352a21.625 21.625 0 0 1 1.42 1.829c4.936 7.123 4.526 15.947.48 23.671-7.642 14.598-24.979 21.709-40.819 21.709a52.637 52.637 0 0 1-.981-.009h-.4a6.176 6.176 0 0 0-.45-.138 1.859 1.859 0 0 0-.45-.062.723.723 0 0 0-.1.006c-.496.07-.561.671-.243 1.362ZM81.338 6.107l-1.8 2.7c7.6-.2 15.3-.3 22.9-.5a4901.719 4901.719 0 0 0 3.526-.076c17.631-.388 35.262-.88 51.574-1.724a.863.863 0 0 1 .122-.009c.442 0 .979.314 1.457.787a4.762 4.762 0 0 1 .721.922c.33.528.443 1.056.337 1.383a.436.436 0 0 1-.337.317l-8.2 3.6a.884.884 0 0 1-.24.042c-.451.021-1.036-.243-1.559-.707a4.001 4.001 0 0 1-.501-.535c-.461-.646-.752-1.293-.637-1.703a.55.55 0 0 1 .037-.097c-14.3.6-29.2.9-44.2 1.3-9.1.2-18.3.4-27.3.6a12648.235 12648.235 0 0 0-3.911 6.098C57.988 42.435 25.932 92.621 25.932 94.08a.041.041 0 0 0 .006.027.022.022 0 0 0 .016.005c.356 0 4.784-5.005 4.784-5.005a.593.593 0 0 1 .315-.159c.411-.078 1.017.148 1.578.65a3.804 3.804 0 0 1 .307.309 3.96 3.96 0 0 1 .473.571c.381.56.565 1.151.451 1.518a.505.505 0 0 1-.124.211s-6.2 7-9.6 3c-2.271-2.765 32.604-58.274 47.442-81.718a5481.543 5481.543 0 0 1 .558-.882c-22.737.699-44.327 1.934-61.961 4.708a194.774 194.774 0 0 0-7.339 1.292c-.473.079-1.258-.341-1.863-.963a3.812 3.812 0 0 1-.437-.537 4.183 4.183 0 0 1-.25-.402c-.438-.807-.367-1.426.15-1.598a274.704 274.704 0 0 1 23.821-3.28c10.522-1.037 21.906-1.739 33.76-2.243a1208.804 1208.804 0 0 1 16.419-.577 842.186 842.186 0 0 1 .028-.044c2.149-3.312 3.49-5.332 3.732-5.77a.326.326 0 0 0 .04-.086c.258-.43.959-.269 1.722.293a5.289 5.289 0 0 1 .378.307 7.093 7.093 0 0 1 .33.398c.547.714.867 1.436.725 1.881a.573.573 0 0 1-.055.121Zm19.7 20.8-21.9 35.5a49.491 49.491 0 0 1 .324-.245c5.031-3.777 10.062-6.012 11.194-1.044a9.057 9.057 0 0 1 .182 1.189 5.013 5.013 0 0 1 .018.21c.087 1.313.169 6.347.181 7.096a211.196 211.196 0 0 1 .001.094.333.333 0 0 0 .21.105c.74.13 3.184-.8 8.484-5.296a100.813 100.813 0 0 0 .679-.584 11.625 11.625 0 0 1 .259-.754c.433-1.144 1.046-2.288 1.794-3.397a22.473 22.473 0 0 1 1.674-2.174c2-2.2 4.3-4.3 6.5-5.9 2.854-1.968 5.515-3.162 6.647-3.009a1.197 1.197 0 0 1 .053.009 4.186 4.186 0 0 1 1.821.926 5.545 5.545 0 0 1 .579.574 5.157 5.157 0 0 1 .781 1.118c.415.811.555 1.669.419 2.482a5.745 5.745 0 0 1-.383 1.449c-.159.408-.356.826-.573 1.263a38.707 38.707 0 0 1-.044.088c-.662 1.264-1.65 2.565-2.856 3.661a11.833 11.833 0 0 1-2.644 1.839c-4.698 2.399-9.997 2.999-10.299 3-5.903 12.672 13.659 5.003 20.954-.904a15.241 15.241 0 0 0 .637-.539 23.409 23.409 0 0 1 2.922-5.034 14.122 14.122 0 0 1 1.586-1.723 4.163 4.163 0 0 0 .324-.245c.171-.141.342-.29.513-.412a2.601 2.601 0 0 1 .063-.043c.355-.266 1.181.018 1.922.713a4.434 4.434 0 0 1 .278.287c.654.735.907 1.538.759 2.025a.649.649 0 0 1-.159.275 13.268 13.268 0 0 0-.437.3c-.138.1-.263.2-.363.3a14.708 14.708 0 0 0-2.489 3.05 25.618 25.618 0 0 0-2.411 5.05 28.764 28.764 0 0 0-.536 1.975c-.38 1.647-.513 3.055-.24 3.843a1.523 1.523 0 0 0 .076.182c.456.182.996.198 1.694.048a6.442 6.442 0 0 0 .206-.048 6.806 6.806 0 0 0 .801-.327 8.05 8.05 0 0 0 1.868-1.259 8.44 8.44 0 0 0 .331-.314 12.489 12.489 0 0 0 1.657-1.753c.783-.992 1.531-2.182 2.243-3.547.7-1.3 1.2-2.7 1.6-4.1a14.629 14.629 0 0 1-2.561-2.76 13.561 13.561 0 0 1-1.339-2.34c-.787-1.773-1.09-3.545-1.004-4.84a5.922 5.922 0 0 1 .004-.06c.145-1.016.501-1.821 1.144-2.263a2.1 2.1 0 0 1 .856-.337c.9-.1 1.7.1 2.5.5 1.3.7 2.4 1.9 3.1 3.4a10.44 10.44 0 0 1 1.062 3.357 21.332 21.332 0 0 1 .038.243 13.118 13.118 0 0 1 .138 1.47c.037.908-.01 1.869-.138 2.83a23.654 23.654 0 0 0 1.279.2c1.825.231 4.124.244 6.575-.824a11.85 11.85 0 0 0 1.146-.576 13.873 13.873 0 0 0 .108-.066c.462-.283.943-.566 1.678.25a3.355 3.355 0 0 1 .014.016 3.262 3.262 0 0 1 .226.328c.443.741.312 1.309-.126 1.572a26.328 26.328 0 0 1-2.499 1.225c-2.032.858-3.827 1.249-5.471 1.249a9.845 9.845 0 0 1-3.33-.574 24.526 24.526 0 0 1-.339 1.287 16.075 16.075 0 0 1-1.561 3.713 25.823 25.823 0 0 1-1.929 3.164 15.339 15.339 0 0 1-1.75 2.05 10.689 10.689 0 0 1-.421.386c-1.2 1-2.3 1.8-3.4 2.1a5.089 5.089 0 0 1-1.502.234 4.93 4.93 0 0 1-2.211-.538 6.048 6.048 0 0 1-.187-.096 8.205 8.205 0 0 1-1.38-.972 6.398 6.398 0 0 1-.62-.628l-.6-.6a6.682 6.682 0 0 1-1.025-2.527 10.536 10.536 0 0 1-.19-2.052 14.858 14.858 0 0 1 .101-1.656 45.654 45.654 0 0 1-3.511 2.391c-4.943 3.043-10.714 5.293-14.64 4.192a5.986 5.986 0 0 1-1.335-.548 9.498 9.498 0 0 1-4.806-7.182 81.64 81.64 0 0 1-.868.695c-3.838 3.012-6.517 4.372-8.384 4.372a2.829 2.829 0 0 1-2.142-.885 6.852 6.852 0 0 1-1.581-3.665c-.333-2.075-.175-4.417-.273-6.45a18.621 18.621 0 0 0-.046-.685C86.441 58.529 70.82 76.09 70.445 76.5a.302.302 0 0 1-.007.007.442.442 0 0 1-.291.167c-.386.065-.999-.208-1.579-.743a4.439 4.439 0 0 1-.13-.124 3.896 3.896 0 0 1-.474-.504c-.557-.708-.766-1.495-.526-1.896l30.5-49.5a.504.504 0 0 1 .38-.236c.388-.056.957.175 1.482.617a3.809 3.809 0 0 1 .238.219 3.896 3.896 0 0 1 .474.503c.557.709.767 1.496.526 1.897Zm135.3 5.5 5-6.3a.593.593 0 0 1 .488-.221c.379 0 .874.249 1.389.651a6.6 6.6 0 0 1 .323.27 4.412 4.412 0 0 1 .406.466c.52.691.738 1.428.494 1.834a.557.557 0 0 0-.043.061c-.337.522-2.482 4.201-5.857 9.639 1 1.3 2 2.8 3 4.6.493.887.306 1.677-.37 1.604a.887.887 0 0 1-.03-.004 1.824 1.824 0 0 1-.395-.099c-.407-.148-.833-.436-1.203-.796a4.008 4.008 0 0 1-.702-.905c-.5-.9-1-1.7-1.5-2.4a770.167 770.167 0 0 1-3.194 5.103c-12.746 20.187-33.772 51.371-42.499 52.396a3.943 3.943 0 0 1-.007.001c-3 .3-4.6-1.5-5-5a8.206 8.206 0 0 1-.052-.826c-.086-5.415 4.157-16.641 10.275-27.867a149.041 149.041 0 0 1 .277-.507 115.356 115.356 0 0 1 12.541-18.373c3.148-3.678 6.398-6.782 9.595-8.928a25.567 25.567 0 0 1 1.964-1.199 19.362 19.362 0 0 1 3.48-1.488c3.136-.966 6.171-.833 9.052.717a13.217 13.217 0 0 1 1.668 1.071l1.1-1.9a3.888 3.888 0 0 1-.194-.386c-.168-.389-.224-.73-.145-.98a.565.565 0 0 1 .139-.234Zm-5.329 10.618a707.965 707.965 0 0 0 3.129-5.018 8.196 8.196 0 0 0-3.82-.922c-1.927 0-3.954.615-6.081 1.671a24.767 24.767 0 0 0-.299.151 26.369 26.369 0 0 0-3.039 1.948c-7.363 5.416-14.85 15.784-20.561 26.152a135.231 135.231 0 0 0-5.649 11.224c-3.133 7.059-4.983 13.156-4.851 16.476 8.627-2.111 28.79-32.012 41.171-51.682Zm62.029 4.282 5.6-6.4a.593.593 0 0 1 .488-.221c.379 0 .874.249 1.389.651a6.6 6.6 0 0 1 .323.27c.705.792 1.021 1.662.882 2.2a.753.753 0 0 1-.082.2l-5.6 6.4c-.4.5-1.4.1-2.2-.7-.711-.8-1.106-1.68-.904-2.216a.672.672 0 0 1 .104-.184Zm69.2 0 5.6-6.4a.593.593 0 0 1 .488-.221c.379 0 .874.249 1.389.651a6.6 6.6 0 0 1 .323.27c.705.792 1.021 1.662.882 2.2a.753.753 0 0 1-.082.2l-5.6 6.4c-.4.5-1.4.1-2.2-.7-.711-.8-1.106-1.68-.904-2.216a.672.672 0 0 1 .104-.184Zm-254.9 13.2a26.313 26.313 0 0 0 2.175-.738 54.632 54.632 0 0 0 2.325-.962c2.078-1.089 3.863-3.157 4.966-5.041a14.373 14.373 0 0 0 .034-.059c.2-.4.3-.7.5-1.1a14.985 14.985 0 0 0-1.263.655c-.398.229-.817.489-1.257.78a35.049 35.049 0 0 0-1.38.965 58.285 58.285 0 0 0-1.593 1.236c-.246.199-.493.402-.741.609a32.462 32.462 0 0 0-3.766 3.655Zm265.5 0a26.313 26.313 0 0 0 2.175-.738 54.632 54.632 0 0 0 2.325-.962c2.078-1.089 3.863-3.157 4.966-5.041a14.373 14.373 0 0 0 .034-.059c.2-.4.3-.7.5-1.1a14.985 14.985 0 0 0-1.263.655c-.398.229-.817.489-1.257.78a35.049 35.049 0 0 0-1.38.965 58.285 58.285 0 0 0-1.593 1.236c-.246.199-.493.402-.741.609a32.462 32.462 0 0 0-3.766 3.655Zm-254.42-16.961a6.574 6.574 0 0 0 .02-.039c.736-1.012 1.388-2.363 1.487-3.04a1.116 1.116 0 0 0 .013-.16c.1-.4.6-1 1.1-1.4a.49.49 0 0 1 .162-.047c.647-.077 1.843.813 1.843 1.206a.167.167 0 0 1-.005.041 2.075 2.075 0 0 1-.108.487c-.64 1.954-3.948 6.542-6.592 5.813l-.2-.2c-.3-.2 0-.8.5-1.3.4-.4.9-.6 1.2-.5.194-.194.387-.48.58-.861Zm20.02 16.961a19.272 19.272 0 0 0 .15-2.219 15.832 15.832 0 0 0-.058-1.52 12.053 12.053 0 0 0-.092-.761c-.1-.9-.3-1.7-.5-2.2h.1a.204.204 0 0 0-.07-.044c-.122-.048-.336-.041-.559.022a1.58 1.58 0 0 0-.071.022.797.797 0 0 0-.717.463c-.145.259-.236.615-.283 1.037-.1.9.1 2 .6 3.1a5.03 5.03 0 0 0 1.278 1.899 6.004 6.004 0 0 0 .222.201Z" vector-effect="non-scaling-stroke" stroke-linecap="round" fill-rule="evenodd" font-size="16" stroke="#263137" fill="#263137" stroke-width=".25mm"/>
</svg>
