<svg viewBox="0 0 500 1000" xmlns="http://www.w3.org/2000/svg" xml:space="preserve" fill-rule="evenodd" clip-rule="evenodd" stroke-linejoin="round" stroke-miterlimit="2">
  <path d="M473.302 259.828 366.45 366.68 265.508 265.737 473.302 57.94v201.887Zm0 213.703-91.346-91.346 91.346-91.345v182.69Zm0 232.9-89.98-89.982 89.98-89.98v179.962Zm0 235.632L265.506 734.267l102.31-102.31 105.486 105.486v204.62ZM260.965 525.106l91.345 91.345-91.345 91.344v-182.69ZM366.45 397.692l102.31 102.31-100.944 100.943-102.308-102.31L366.45 397.692ZM260.965 292.206l89.98 89.979-89.98 89.98V292.206Zm-21.929 179.958-89.975-89.979 89.975-89.977v179.956Zm0 235.63-91.343-91.345 91.343-91.343v182.687ZM26.698 942.062v-204.62l105.488-105.488 102.31 102.31L26.698 942.062Zm0-415.595 89.983 89.981-89.983 89.982V526.468Zm0-235.636 91.35 91.353-91.35 91.349V290.832Zm207.798 207.803-102.31 102.308L31.243 500l102.31-102.31 100.943 100.944ZM26.698 57.94l207.798 207.796-100.942 100.941L26.698 259.82V57.94Zm234.267 181.325V5h-21.929v234.266L4.771 5v990.004l234.265-234.269v234.269h21.93V760.738L495.23 995.004V5L260.965 239.266Z" fill="#3c494f" fill-rule="nonzero"/>
</svg>
